<?xml version="1.0" encoding="utf-8"?>
<!-- Generator: Adobe Illustrator 20.1.0, SVG Export Plug-In . SVG Version: 6.00 Build 0)  -->
<svg version="1.1" id="Layer_1" xmlns="http://www.w3.org/2000/svg" xmlns:xlink="http://www.w3.org/1999/xlink" x="0px" y="0px"
	 viewBox="0 0 961 550.3" style="enable-background:new 0 0 961 550.3;" xml:space="preserve">
<style type="text/css">
	.st0{opacity:0.2;fill-rule:evenodd;clip-rule:evenodd;fill:#F9B148;}
	.st1{fill:none;stroke:#00BDF2;stroke-width:4;stroke-miterlimit:10;}
	.st2{fill:none;stroke:#00BDF2;stroke-width:4;stroke-miterlimit:10;stroke-dasharray:12.6509,12.6509;}
	.st3{fill:#0D2634;}
	.st4{opacity:0.3;fill-rule:evenodd;clip-rule:evenodd;fill:#E0E5E9;}
	.st5{opacity:0.2;fill-rule:evenodd;clip-rule:evenodd;fill:#E0E5E9;}
	.st6{fill:none;stroke:#FFFFFF;stroke-width:4;stroke-miterlimit:10;}
	.st7{fill-rule:evenodd;clip-rule:evenodd;fill:#235AA7;}
	.st8{fill-rule:evenodd;clip-rule:evenodd;}
	.st9{fill:#F99B1F;}
	.st10{fill:#15100B;}
	.st11{fill:#235AA7;}
	
		.st12{fill-rule:evenodd;clip-rule:evenodd;fill:none;stroke:#336699;stroke-linecap:round;stroke-linejoin:round;stroke-miterlimit:10;stroke-dasharray:12;}
	.st13{fill:#F99B21;}
	.st14{fill:none;stroke:#00BDF2;stroke-width:4;stroke-miterlimit:10;stroke-dasharray:11.5156,11.5156;}
	.st15{fill:#EDF3FB;}
	.st16{fill:#0F294B;}
	.st17{fill:#737F89;}
	.st18{fill:#DADCD8;}
	.st19{fill:#DCDED7;}
	.st20{fill:#CCD5ED;}
	.st21{fill:#5681B2;}
	.st22{fill:none;}
	.st23{fill:#3D669C;}
	.st24{fill:#29457A;}
	.st25{fill:none;stroke:#336699;stroke-miterlimit:10;}
	.st26{fill:#FFFFFF;}
	.st27{fill:#D01F42;stroke:#FFFFFF;stroke-width:2;stroke-miterlimit:10;}
	.st28{fill:#7D011F;}
	.st29{fill:none;stroke:#000000;stroke-miterlimit:10;}
	.st30{fill:#3D679B;}
	.st31{fill:#C84227;}
	.st32{fill:#369F92;}
	.st33{opacity:0.5;fill:#0E294A;}
	.st34{fill:#88231B;}
	.st35{fill:none;stroke:#3D669C;stroke-width:2;stroke-miterlimit:10;}
	.st36{fill:none;stroke:#3D669C;stroke-width:2;stroke-miterlimit:10;stroke-dasharray:13.5687,13.5687;}
	.st37{fill:none;stroke:#3D669C;stroke-width:2;stroke-miterlimit:10;stroke-dasharray:10.8677,10.8677;}
	.st38{fill:none;stroke:#3D669C;stroke-width:2;stroke-miterlimit:10;stroke-dasharray:10.4456,10.4456;}
	.st39{fill:none;stroke:#3D669C;stroke-width:2;stroke-miterlimit:10;stroke-dasharray:11.9132,11.9132;}
</style>
<path class="st0" d="M958.4,150.9c0,110.1-178.6,252.8-350.4,252.8s-310.9-89.2-310.9-199.3S436.3,5.1,608.1,5.1
	S958.4,40.8,958.4,150.9z"/>
<path class="st0" d="M789.9,373.1c0,145.2-179,177.9-399.3,177.9S-50.7,506,19.8,379c121-218,150.7-268.9,371.1-268.9
	S789.9,227.9,789.9,373.1z"/>
<ellipse class="st0" cx="599.1" cy="258.6" rx="282.5" ry="211"/>
<path class="st0" d="M646.8,191.5c0,73.1,89.8,350.7-300.9,340.2c-155.6-4.2-224.8-307.9-224.8-381s139.8-91.6,277.1-91.6
	S646.8,118.4,646.8,191.5z"/>
<g>
	<g>
		<g>
			<line class="st1" x1="520.4" y1="254.1" x2="514.4" y2="254.1"/>
			<line class="st2" x1="501.7" y1="254.1" x2="406.9" y2="254"/>
			<line class="st1" x1="400.5" y1="254" x2="394.5" y2="254"/>
		</g>
	</g>
	<g>
		<g>
			<path class="st3" d="M585.4,161.8c0,0-0.2,0.2-0.5,0.5c-0.3,0.3-0.8,0.7-1.6,1.1c-0.7,0.4-1.6,0.8-2.8,1.1
				c-1.1,0.2-2.4,0.3-3.9,0.2c-1.4-0.2-3-0.8-4.3-1.8c-1.3-1-2.5-2.4-3.2-4.2c-0.4-0.9-0.6-1.8-0.7-2.8c-0.1-0.5-0.1-1-0.1-1.4
				c0-0.5,0.1-1,0.1-1.5c0.3-2,1.3-3.8,2.7-5.3c1.4-1.5,3.2-2.6,5.2-3c1-0.2,2-0.3,3-0.2c1,0.1,2,0.3,2.9,0.6
				c1.8,0.7,3.3,1.9,4.4,3.3c1.1,1.4,1.7,3,1.8,4.5c0.2,1.5,0,2.9-0.3,4c-0.3,1.1-0.8,2.1-1.2,2.8c-0.5,0.7-0.9,1.2-1.2,1.5
				C585.6,161.7,585.4,161.8,585.4,161.8z M585.3,161.7c0,0,0.2-0.2,0.4-0.5c0.3-0.3,0.7-0.8,1-1.5c0.4-0.7,0.7-1.6,0.8-2.7
				c0.1-1.1,0.1-2.3-0.3-3.6c-0.4-1.3-1-2.5-2-3.6c-1-1.1-2.2-2.1-3.6-2.6c-1.4-0.6-3.1-0.7-4.8-0.5c-1.6,0.2-3.2,1.1-4.4,2.3
				c-1.3,1.2-2.2,2.7-2.5,4.4c-0.1,0.4-0.1,0.8-0.2,1.3c0,0.5,0,0.9,0,1.3c0,0.8,0.2,1.7,0.5,2.4c0.5,1.5,1.6,2.9,2.7,3.9
				c1.2,1,2.5,1.7,3.8,2c1.3,0.3,2.6,0.3,3.7,0.1c1.1-0.2,2-0.6,2.7-1c0.7-0.4,1.2-0.8,1.5-1.1C585.1,161.8,585.3,161.7,585.3,161.7
				z"/>
		</g>
	</g>
	<path class="st4" d="M689.3,293.2H571.1c-18.9,0-34.4-15.5-34.4-34.4v-0.2c0-18.9,15.5-34.4,34.4-34.4h118.2
		c18.9,0,34.4,15.5,34.4,34.4v0.2C723.7,277.7,708.2,293.2,689.3,293.2z"/>
	<path class="st5" d="M696.4,186.7l-123.7,2.1c-6.3,0-11.5-5.1-11.5-11.4c0-0.1,0-0.1,0-0.2L539.7,88c0-0.1,0-0.2,0-0.3
		c0.1-6.3,5.2-11.4,11.5-11.4h163.4c6.3,0,11.5,5.1,11.5,11.4c0,0.1,0,0.2,0,0.3l-18.2,87.1c0,0.1,0,0.1,0,0.2
		C707.9,181.6,702.7,186.7,696.4,186.7z"/>
	<g>
		<path class="st6" d="M793.1,33.4L747.4,35c-4.4,0.1-8.2,3.3-9.1,7.6l-31.4,141.7c-1,4.5-5,7.6-9.5,7.6l-137.3-1.6
			c-4.4-0.1-8.1-3-9.2-7.2l-25.4-97.3c-1.6-6.2,3.1-12.2,9.4-12.1L724,75.4"/>
	</g>
	<g>
		<path class="st7" d="M679.7,94.5c0,0-9.8-4.3-11.5-3.7c-1.7,0.6-22.7,25.7-32.4,55.5c-0.5,1.6,9,7.9,9,7.9l-5.3,9.1
			c0,0-13.7-10.3-15.9-13.8c-1.3-2.1,20.7-55.7,41.5-71.1c1.2-0.9,19.8,7,19.8,7S682.2,90.9,679.7,94.5z"/>
		<path class="st7" d="M699,105.6c0,0,8.6,6.5,8.9,8.2c0.3,1.8-10.7,32.1-32.4,55.5c-1.1,1.2-11.3-4-11.3-4l-5.3,9.1
			c0,0,15.7,6.9,19.8,7c2.5,0.1,38.4-45.4,41.5-71.1c0.2-1.5-15.9-13.8-15.9-13.8S700.9,101.6,699,105.6z"/>
		<path class="st7" d="M674.5,124.3c0,0,3.7-15.6,3.5-16.3c-0.3-1.1-8.5-3.3-8.5-3.3s-9.7,17.7-8.7,47c0,0.5,9,4.4,9,4.4l1.9-18
			c0,0,10.3-5.2,23-18.7c0.9-1-7.4-6.4-7.4-6.4L674.5,124.3z"/>
	</g>
	<g>
		<path class="st8" d="M596.6,203.8h-29.3c-0.8,0-1.4-0.6-1.4-1.4l0,0c0-0.8,0.6-1.4,1.4-1.4h29.3c0.8,0,1.4,0.6,1.4,1.4l0,0
			C598,203.2,597.4,203.8,596.6,203.8z"/>
		<path class="st8" d="M662,203.7h-58c-0.8,0-1.4-0.6-1.4-1.4l0,0c0-0.8,0.6-1.4,1.4-1.4h58c0.8,0,1.4,0.6,1.4,1.4l0,0
			C663.4,203,662.8,203.7,662,203.7z"/>
		<path class="st8" d="M612.8,209.9h-72.8c-0.8,0-1.4-0.6-1.4-1.4l0,0c0-0.8,0.6-1.4,1.4-1.4h72.8c0.8,0,1.4,0.6,1.4,1.4l0,0
			C614.2,209.3,613.5,209.9,612.8,209.9z"/>
		<path class="st8" d="M695.1,210.4h-72.8c-0.8,0-1.4-0.6-1.4-1.4l0,0c0-0.8,0.6-1.4,1.4-1.4h72.8c0.8,0,1.4,0.6,1.4,1.4l0,0
			C696.5,209.8,695.8,210.4,695.1,210.4z"/>
		<path class="st8" d="M631.1,216.2h-63.8c-0.8,0-1.4-0.6-1.4-1.4l0,0c0-0.8,0.6-1.4,1.4-1.4h63.8c0.8,0,1.4,0.6,1.4,1.4l0,0
			C632.5,215.6,631.9,216.2,631.1,216.2z"/>
	</g>
	<g>
		<g>
			<path class="st9" d="M626.7,152.9c-0.1-0.2-0.3-0.3-0.5-0.3l-4.4-0.7c-0.2-0.8-0.6-1.6-1-2.4c0.3-0.4,0.7-1,1.3-1.7
				c0.6-0.7,1-1.3,1.2-1.6c0.1-0.2,0.2-0.4,0.2-0.6c0-0.2-0.1-0.4-0.2-0.5c-0.6-0.8-1.9-2.2-4-4.1c-0.2-0.2-0.4-0.2-0.6-0.2
				c-0.2,0-0.4,0.1-0.6,0.2l-3.4,2.6c-0.7-0.3-1.4-0.6-2.2-0.9l-0.7-4.4c0-0.2-0.1-0.4-0.3-0.5c-0.2-0.1-0.4-0.2-0.6-0.2h-5.3
				c-0.5,0-0.8,0.2-0.9,0.7c-0.2,0.8-0.4,2.3-0.7,4.5c-0.8,0.2-1.5,0.5-2.2,0.9l-3.3-2.6c-0.2-0.2-0.4-0.2-0.6-0.2
				c-0.4,0-1.1,0.6-2.3,1.7c-1.2,1.1-2,2-2.4,2.6c-0.1,0.2-0.2,0.4-0.2,0.6c0,0.2,0.1,0.4,0.2,0.6c1.1,1.3,1.9,2.4,2.6,3.3
				c-0.4,0.7-0.7,1.5-0.9,2.2l-4.5,0.7c-0.2,0-0.3,0.1-0.5,0.3c-0.1,0.2-0.2,0.4-0.2,0.6v5.3c0,0.2,0.1,0.4,0.2,0.6
				c0.1,0.2,0.3,0.3,0.5,0.3l4.4,0.7c0.2,0.8,0.6,1.6,1,2.4c-0.3,0.4-0.7,1-1.3,1.7c-0.6,0.7-1,1.3-1.2,1.6
				c-0.1,0.2-0.2,0.4-0.2,0.6c0,0.2,0.1,0.4,0.2,0.6c0.6,0.9,2,2.2,4,4c0.2,0.2,0.4,0.3,0.6,0.3c0.2,0,0.4-0.1,0.6-0.2l3.4-2.6
				c0.7,0.3,1.4,0.6,2.2,0.9l0.7,4.4c0,0.2,0.1,0.4,0.3,0.5c0.2,0.1,0.4,0.2,0.6,0.2h5.3c0.5,0,0.8-0.2,0.9-0.7
				c0.2-0.8,0.4-2.3,0.7-4.5c0.8-0.2,1.5-0.5,2.2-0.9l3.3,2.6c0.2,0.1,0.4,0.2,0.6,0.2c0.4,0,1.1-0.6,2.3-1.7c1.2-1.1,2-2,2.4-2.6
				c0.1-0.2,0.2-0.3,0.2-0.6c0-0.2-0.1-0.4-0.2-0.6c-1.2-1.4-2-2.5-2.6-3.3c0.3-0.6,0.6-1.3,0.9-2.2l4.5-0.7c0.2,0,0.4-0.1,0.5-0.3
				c0.1-0.2,0.2-0.4,0.2-0.6v-5.3C626.9,153.2,626.9,153,626.7,152.9z M612.8,160.4c-1.2,1.2-2.7,1.8-4.4,1.8
				c-1.7,0-3.2-0.6-4.4-1.8c-1.2-1.2-1.8-2.7-1.8-4.4c0-1.7,0.6-3.2,1.8-4.4c1.2-1.2,2.7-1.8,4.4-1.8c1.7,0,3.2,0.6,4.4,1.8
				c1.2,1.2,1.8,2.7,1.8,4.4C614.6,157.8,614,159.2,612.8,160.4z"/>
			<g>
				<path class="st10" d="M626.7,152.9c-0.1-0.2-0.3-0.3-0.5-0.3l-0.6-0.1l-1.3-0.2l-2.5-0.4l0,0l0,0c-0.3-0.8-0.6-1.6-1-2.4l0,0
					l0,0l1.6-2.1l0.8-1.1c0.1-0.2,0.3-0.4,0.3-0.6c0-0.2,0-0.4-0.2-0.6l0,0l0,0c-0.7-0.9-1.5-1.7-2.4-2.6l-1.3-1.2
					c-0.2-0.2-0.4-0.4-0.7-0.5c-0.3-0.1-0.6,0-0.7,0.2l0,0l0,0l-3.4,2.6l0,0l-0.1,0l-2.2-0.9l-0.1,0l0-0.1l-0.7-4.4l0,0l0,0
					c0-0.2-0.1-0.4-0.3-0.5c-0.2-0.1-0.4-0.1-0.7-0.1l-1.5,0l-3.1,0c-0.3,0-0.5,0-0.7,0c-0.2,0.1-0.3,0.2-0.3,0.4
					c-0.1,0.5-0.2,1-0.3,1.5c-0.2,1-0.3,2-0.4,3l0,0.2l-0.2,0.1c-0.7,0.2-1.5,0.6-2.1,0.9L602,144l-0.2-0.1l-3.3-2.5
					c-0.2-0.2-0.4-0.2-0.6-0.1c-0.2,0.1-0.5,0.3-0.8,0.6c-0.5,0.4-1,0.9-1.5,1.4c-0.5,0.5-1,1-1.4,1.5c-0.2,0.2-0.5,0.6-0.6,0.8
					c0,0.1,0,0.1-0.1,0.1l0,0c0,0.1,0,0,0,0.1c0,0.1,0,0.1,0.2,0.3l2.6,3.3l0.2,0.2l-0.1,0.3c-0.4,0.7-0.7,1.4-0.9,2.1l-0.1,0.3
					l-0.3,0l-4.1,0.6c-0.5,0.1-0.4,0-0.5,0.2c0,0.1-0.1,0.1-0.1,0.3l0,0.5l0,2.1l0,2.1l0,0.5c0,0.2,0,0.2,0,0.3
					c0,0.1,0.1,0.1,0.1,0.2c0,0,0,0,0.1,0l0.3,0l4.1,0.6l0.3,0l0.1,0.3c0.2,0.8,0.5,1.6,0.9,2.3l0.1,0.3l-0.2,0.2l-1.9,2.5l-0.5,0.6
					c-0.2,0.2-0.3,0.3-0.3,0.5c0,0.1,0,0.3,0.1,0.4c0.2,0.2,0.3,0.4,0.5,0.6c0.7,0.8,1.4,1.5,2.1,2.2l1.1,1c0.2,0.2,0.3,0.3,0.4,0.3
					c0.1,0,0.3,0,0.4-0.1l0,0l0,0l3.4-2.5l0.2-0.1l0.2,0.1l2.1,0.9l0.2,0.1l0,0.2l0.6,4.4l0,0l0,0c0,0.2,0.1,0.3,0.2,0.4
					c0.1,0.1,0.3,0.1,0.6,0.1l1.5,0l3.1,0c0.3,0,0.5,0,0.7,0c0.2-0.1,0.3-0.2,0.3-0.4c0.1-0.5,0.2-1,0.3-1.5c0.2-1,0.3-2,0.4-3
					l0-0.1l0.1,0c0.7-0.2,1.5-0.5,2.2-0.9l0.1-0.1l0.1,0.1l3.3,2.6l0,0c0.2,0.1,0.5,0.3,0.7,0.2c0.2-0.1,0.5-0.3,0.7-0.4
					c0.5-0.4,0.9-0.8,1.3-1.2c0.8-0.8,1.7-1.6,2.4-2.6l0,0l0,0c0.1-0.2,0.2-0.4,0.2-0.6c0-0.2-0.1-0.4-0.3-0.6l-0.8-1.1l-1.7-2.2
					l0,0l0,0l0.9-2.2l0,0l0,0l2.9-0.4l1.4-0.2c0.5,0,0.8-0.5,0.8-1l0-2.9l0-1.5l0-0.7C627,153.3,626.9,153.1,626.7,152.9z
					 M626.7,152.9c0.2,0.2,0.2,0.4,0.2,0.7l0,0.7l0,1.5l0,2.9c0,0.2,0,0.5-0.2,0.7c-0.1,0.2-0.4,0.3-0.6,0.3l-1.4,0.2l-2.9,0.4l0,0
					l-0.9,2.2l0-0.1l1.7,2.2l0.8,1.1c0.1,0.2,0.3,0.4,0.3,0.6c0,0.2-0.1,0.5-0.2,0.7l0,0c-0.7,0.9-1.5,1.8-2.4,2.6
					c-0.4,0.4-0.8,0.8-1.3,1.2c-0.2,0.2-0.5,0.4-0.8,0.5c-0.4,0.1-0.7,0-1-0.2l0,0l0,0l-3.3-2.6l0.2,0c-0.7,0.4-1.4,0.7-2.2,0.9
					l0.1-0.2c-0.1,1-0.2,2-0.4,3.1c-0.1,0.5-0.2,1-0.3,1.5c-0.1,0.3-0.3,0.6-0.7,0.7c-0.3,0.1-0.6,0.1-0.8,0.1l-3.1,0l-1.5,0
					c-0.2,0-0.6,0-0.9-0.1c-0.3-0.1-0.6-0.5-0.6-0.9l0,0l-0.7-4.4l0.2,0.3l-2.2-0.9l0.4,0l-3.4,2.6l0,0c-0.3,0.3-0.7,0.4-1.1,0.3
					c-0.4,0-0.7-0.4-0.9-0.5l-1.1-1.1c-0.8-0.7-1.5-1.4-2.2-2.2c-0.2-0.2-0.4-0.4-0.5-0.6c-0.2-0.3-0.3-0.7-0.3-1.1
					c0-0.4,0.3-0.7,0.4-0.9l0.5-0.6l1.9-2.5l0,0.5c-0.4-0.8-0.8-1.6-1-2.5l0.4,0.3l-4.1-0.6l-0.3,0c-0.1,0-0.3-0.1-0.4-0.1
					c-0.3-0.1-0.5-0.4-0.6-0.6c-0.1-0.2-0.2-0.6-0.2-0.7l0-0.5l0-2.1l0-2.1l0-0.5c0-0.2,0.1-0.5,0.2-0.7c0.1-0.2,0.3-0.4,0.6-0.6
					c0.4-0.1,0.5-0.1,0.6-0.1l4.1-0.6l-0.4,0.3c0.2-0.8,0.6-1.6,1-2.3l0,0.5l-2.6-3.3c-0.1-0.1-0.3-0.4-0.3-0.6c0-0.1,0-0.2,0-0.2
					c0-0.1,0-0.2,0-0.2c0-0.1,0.1-0.3,0.1-0.4c0.2-0.4,0.5-0.6,0.7-0.9c0.5-0.5,1-1,1.5-1.5c0.5-0.5,1-1,1.6-1.4
					c0.3-0.2,0.6-0.5,0.9-0.6c0.5-0.3,1.1-0.1,1.4,0.2l3.3,2.6l-0.3,0c0.7-0.4,1.5-0.7,2.2-0.9l-0.2,0.2c0.1-1,0.3-2,0.4-3.1
					c0.1-0.5,0.2-1,0.3-1.5c0.1-0.3,0.3-0.6,0.7-0.7c0.3-0.1,0.6,0,0.8-0.1l3.1,0l1.5,0c0.2,0,0.6,0,0.8,0.1
					c0.3,0.1,0.5,0.4,0.5,0.8l0,0l0.6,4.4l-0.1-0.1l2.2,0.9l-0.1,0l3.4-2.5l0,0c0.2-0.2,0.6-0.3,0.9-0.2c0.3,0.1,0.5,0.3,0.7,0.5
					l1.3,1.2c0.8,0.8,1.7,1.6,2.4,2.6l0,0c0.2,0.2,0.2,0.4,0.2,0.7c0,0.2-0.2,0.4-0.3,0.6l-0.8,1.1l-1.6,2.1l0,0
					c0.4,0.8,0.7,1.6,1,2.4l0,0l2.5,0.4l1.3,0.2l0.6,0.1C626.4,152.6,626.6,152.7,626.7,152.9z"/>
				<path class="st10" d="M612.8,160.4c0,0-0.1,0.1-0.3,0.3c-0.2,0.2-0.5,0.5-1,0.7c-0.9,0.5-2.4,1-4.3,0.8
					c-0.9-0.1-1.9-0.5-2.8-1.2c-0.9-0.7-1.6-1.5-2.1-2.7c-0.5-1.1-0.6-2.4-0.4-3.7c0.2-1.3,0.9-2.5,1.8-3.4c0.9-0.9,2.1-1.6,3.4-1.8
					c1.3-0.2,2.5-0.1,3.7,0.4c1.1,0.5,2,1.3,2.7,2.1c0.7,0.9,1,1.8,1.2,2.8c0.3,1.8-0.2,3.4-0.8,4.3c-0.3,0.5-0.5,0.8-0.7,1
					C612.9,160.3,612.8,160.4,612.8,160.4z M612.8,160.4c0,0,0.1-0.1,0.3-0.3c0.2-0.2,0.5-0.5,0.7-1c0.5-0.9,1-2.5,0.6-4.2
					c-0.2-0.9-0.6-1.8-1.3-2.5c-0.7-0.8-1.5-1.4-2.6-1.7c-1-0.3-2.2-0.4-3.2-0.2c-1.1,0.2-2.1,0.8-2.9,1.6c-0.8,0.8-1.4,1.8-1.6,2.9
					c-0.2,1.1-0.2,2.2,0.2,3.2c0.3,1,1,1.9,1.7,2.6c0.8,0.7,1.6,1.1,2.5,1.3c1.8,0.4,3.3,0,4.2-0.6c0.5-0.3,0.8-0.5,1-0.7
					C612.7,160.5,612.8,160.4,612.8,160.4z"/>
			</g>
		</g>
	</g>
	<g>
		<path class="st11" d="M719.9,251.5c-0.2-0.3-0.5-0.4-0.8-0.5l-6.9-1.1c-0.4-1.2-0.9-2.4-1.5-3.7c0.4-0.6,1.1-1.5,2-2.6
			c0.9-1.1,1.5-2,1.9-2.5c0.2-0.3,0.3-0.6,0.3-0.9c0-0.4-0.1-0.6-0.3-0.8c-0.9-1.3-3-3.4-6.2-6.4c-0.3-0.3-0.6-0.4-0.9-0.4
			c-0.4,0-0.7,0.1-0.9,0.3l-5.3,4c-1-0.5-2.2-1-3.4-1.4l-1.1-6.9c0-0.3-0.2-0.6-0.4-0.8c-0.3-0.2-0.6-0.3-0.9-0.3h-8.3
			c-0.7,0-1.2,0.4-1.4,1.1c-0.3,1.3-0.7,3.6-1.1,7c-1.2,0.4-2.3,0.9-3.4,1.4l-5.2-4c-0.3-0.3-0.7-0.4-1-0.4c-0.6,0-1.7,0.9-3.5,2.7
			c-1.8,1.8-3,3.1-3.7,4c-0.2,0.3-0.3,0.6-0.3,0.9c0,0.3,0.1,0.6,0.4,0.9c1.7,2,3,3.8,4,5.2c-0.6,1.2-1.1,2.3-1.5,3.5l-7,1.1
			c-0.3,0.1-0.5,0.2-0.7,0.5c-0.2,0.3-0.3,0.6-0.3,0.9v8.3c0,0.3,0.1,0.6,0.3,0.9c0.2,0.3,0.5,0.4,0.8,0.5l6.9,1
			c0.4,1.2,0.9,2.5,1.5,3.7c-0.5,0.6-1.1,1.5-2,2.6c-0.9,1.1-1.5,2-1.9,2.5c-0.2,0.3-0.3,0.6-0.3,0.9c0,0.3,0.1,0.6,0.3,0.9
			c1,1.4,3,3.5,6.2,6.3c0.3,0.3,0.6,0.4,0.9,0.4c0.4,0,0.7-0.1,0.9-0.3l5.3-4c1,0.5,2.2,1,3.4,1.4l1.1,6.9c0,0.3,0.2,0.6,0.4,0.8
			c0.3,0.2,0.6,0.3,0.9,0.3h8.3c0.7,0,1.2-0.4,1.4-1.1c0.3-1.3,0.7-3.6,1.1-7c1.2-0.4,2.3-0.9,3.4-1.4l5.2,4.1
			c0.4,0.2,0.7,0.3,1,0.3c0.6,0,1.7-0.9,3.5-2.7c1.8-1.8,3-3.1,3.7-4.1c0.2-0.3,0.3-0.5,0.3-0.9c0-0.3-0.1-0.6-0.4-0.9
			c-1.8-2.2-3.1-3.9-4-5.2c0.5-0.9,1-2.1,1.5-3.4l6.9-1.1c0.3-0.1,0.6-0.2,0.8-0.5c0.2-0.3,0.3-0.6,0.3-0.9v-8.3
			C720.2,252,720.1,251.7,719.9,251.5z M698.1,263.2c-1.9,1.9-4.1,2.8-6.8,2.8c-2.7,0-4.9-0.9-6.8-2.8c-1.9-1.9-2.8-4.1-2.8-6.8
			c0-2.7,0.9-4.9,2.8-6.8c1.9-1.9,4.1-2.8,6.8-2.8c2.7,0,4.9,0.9,6.8,2.8c1.9,1.9,2.8,4.1,2.8,6.8
			C700.9,259.1,700,261.4,698.1,263.2z"/>
	</g>
	<g>
		<g>
			<g>
				<path class="st3" d="M720,251.2c-0.2-0.3-0.5-0.4-0.8-0.4l-1-0.1l-2-0.3l-3.9-0.6l-0.1,0l0-0.1c-0.4-1.3-0.9-2.5-1.5-3.7l0-0.1
					l0,0l2.5-3.3l1.2-1.7c0.2-0.3,0.4-0.5,0.4-0.9c0-0.3,0-0.7-0.2-0.9l0,0l0,0c-1.1-1.4-2.4-2.7-3.7-4l-2-1.9l-0.5-0.5
					c-0.1-0.1-0.3-0.2-0.5-0.3c-0.4-0.1-0.8,0-1.1,0.2l0,0l0,0l-5.3,4.1l-0.1,0.1l-0.2-0.1c-1.1-0.5-2.2-1-3.3-1.3l-0.2-0.1l0-0.2
					l-1.1-6.9l0,0l0,0c0-0.3-0.2-0.5-0.5-0.6c-0.2-0.1-0.5-0.1-1-0.1l-2.4,0l-4.8,0l-0.6,0c-0.2,0-0.3,0-0.4,0.1
					c-0.2,0.1-0.4,0.2-0.5,0.5c-0.1,0.3-0.2,0.7-0.2,1.1l-0.2,1.2c-0.2,1.6-0.4,3.2-0.6,4.7l0,0.3l-0.3,0.1
					c-1.1,0.4-2.3,0.8-3.3,1.4l-0.3,0.2l-0.3-0.2l-5.2-4c-0.3-0.3-0.7-0.3-0.9-0.2c-0.4,0.2-0.8,0.5-1.2,0.9
					c-0.8,0.7-1.6,1.4-2.3,2.2c-0.8,0.8-1.5,1.5-2.2,2.4l-0.5,0.6c-0.2,0.2-0.3,0.4-0.4,0.6c0,0.1-0.1,0.2-0.1,0.2l0,0.1
					c0,0,0,0.1,0,0.1l0,0c0,0.1,0.1,0.2,0.3,0.4l4,5.1l0.3,0.3l-0.2,0.4c-0.6,1.1-1,2.2-1.4,3.3l-0.1,0.4l-0.4,0.1l-6.4,1
					c-0.2,0-0.6,0.1-0.6,0.1c-0.1,0-0.2,0.1-0.2,0.3c-0.1,0.2-0.1,0.2-0.1,0.4l0,0.8l0,3.3l0,3.3l0,0.8c0,0.2,0,0.2,0,0.3
					c0,0.1,0,0.1,0.1,0.2c0.1,0.1,0.1,0.2,0.2,0.2c0,0,0.1,0,0.1,0l0.4,0.1l6.4,0.9l0.5,0.1l0.2,0.5c0.4,1.2,0.9,2.4,1.5,3.5
					l0.3,0.5l-0.3,0.4l-2.9,3.9l-0.7,1l-0.2,0.2c-0.1,0.1-0.1,0.2-0.1,0.2c0,0.1-0.1,0.1-0.1,0.2c0,0,0,0.2,0,0.2
					c0,0.1,0,0.1,0.1,0.2c0.2,0.3,0.5,0.6,0.7,0.9c1,1.2,2.2,2.3,3.3,3.3l1.8,1.6l0.2,0.2c0.1,0.1,0.1,0.1,0.1,0.1
					c0.1,0,0.1,0,0.1,0c0.1,0,0.3,0,0.3-0.1l0,0l0.1,0l5.3-4l0.5-0.4l0.6,0.3c1,0.5,2.1,1,3.2,1.3l0.6,0.2l0.1,0.6l1,6.9l0,0.1
					c0,0.1,0,0,0.1,0.1c0,0,0.1,0,0.2,0l0.5,0l2.4,0l4.8,0l0.6,0c0.2,0,0.2,0,0.3,0c0.1,0,0.1,0,0.2-0.2c0.1-0.3,0.2-0.7,0.3-1.1
					l0.2-1.1c0.3-1.6,0.5-3.1,0.7-4.7l0.1-0.6l0.5-0.2c1.1-0.3,2.2-0.8,3.3-1.3l0.5-0.3l0.4,0.3c1.7,1.4,3.4,2.7,5.1,4.1l-0.1,0
					c0.1,0.1,0.3,0.2,0.4,0.2c0.1,0,0.2,0,0.2,0c0.3-0.1,0.6-0.4,1-0.6c0.7-0.5,1.4-1.1,2-1.8c1.3-1.3,2.7-2.5,3.7-3.9l0,0l0,0
					c0.2-0.2,0.2-0.3,0.2-0.6c0-0.1,0-0.2-0.1-0.3c0-0.1-0.1-0.2-0.3-0.4l-1.3-1.7l-2.5-3.4l-0.1-0.2l0.1-0.2
					c0.6-1.1,1.1-2.2,1.5-3.3l0.1-0.2l0.2,0l4.5-0.6l2.2-0.3c0.4,0,0.6-0.1,0.8-0.4c0.2-0.3,0.3-0.6,0.3-0.9l0-4.5l0-2.3l0-1.1
					C720.3,251.8,720.2,251.4,720,251.2z M720.1,251c0.3,0.3,0.4,0.8,0.3,1.1l0,1.1l0,2.3l0,4.5c0,0.4-0.1,0.9-0.3,1.2
					c-0.1,0.2-0.3,0.3-0.5,0.4c-0.2,0.1-0.4,0.1-0.6,0.2l-2.2,0.4l-4.5,0.7l0.2-0.2c-0.4,1.2-0.8,2.4-1.4,3.5l0-0.4l2.7,3.3l1.3,1.7
					l0.2,0.2c0.1,0.1,0.1,0.2,0.2,0.3c0.1,0.2,0.2,0.4,0.2,0.7c0.1,0.5-0.1,1-0.4,1.4l0,0c-0.6,0.8-1.2,1.5-1.8,2.2
					c-0.6,0.7-1.3,1.4-1.9,2c-0.7,0.7-1.3,1.3-2.1,1.9c-0.4,0.3-0.7,0.6-1.3,0.9c-0.4,0.2-0.8,0.1-1.1,0.1c-0.3-0.1-0.6-0.2-0.8-0.4
					l0,0l0,0c-1.8-1.3-3.5-2.6-5.2-4l0.9,0.1c-1.1,0.6-2.3,1.1-3.5,1.5l0.6-0.8c-0.2,1.6-0.4,3.2-0.6,4.8l-0.2,1.2
					c-0.1,0.4-0.1,0.8-0.3,1.3c-0.1,0.3-0.2,0.6-0.5,0.9c-0.2,0.3-0.6,0.5-0.9,0.6c-0.3,0.1-0.7,0.1-0.9,0.1l-0.6,0l-4.8,0l-2.4,0
					l-0.3,0c-0.1,0-0.2,0-0.4,0c-0.3,0-0.7-0.1-1-0.3c-0.3-0.2-0.6-0.4-0.8-0.7c-0.2-0.3-0.4-0.7-0.4-1.1l0,0.1l-1.1-6.9l0.7,0.8
					c-1.2-0.4-2.4-0.9-3.5-1.5l1.1-0.1l-5.3,4l0.1-0.1c-0.3,0.2-0.6,0.4-0.9,0.5c-0.4,0.1-0.6,0.1-1,0.1c-0.4-0.1-0.7-0.2-1-0.4
					c-0.1-0.1-0.3-0.3-0.3-0.3l-0.2-0.2l-1.8-1.7c-1.2-1.1-2.3-2.3-3.4-3.5c-0.3-0.3-0.6-0.7-0.8-1c-0.2-0.2-0.3-0.5-0.4-0.9
					c-0.1-0.3-0.1-0.6-0.1-1c0-0.3,0.2-0.7,0.3-0.9c0.1-0.2,0.2-0.2,0.2-0.3l0.2-0.2l0.7-1l2.9-3.8l-0.1,0.9
					c-0.7-1.2-1.2-2.5-1.6-3.9l0.7,0.6l-6.4-1l-0.4-0.1c-0.2,0-0.4-0.1-0.6-0.2c-0.4-0.2-0.7-0.6-0.9-0.9c-0.1-0.2-0.2-0.4-0.2-0.6
					c0-0.2,0-0.5,0-0.6l0-0.8l0-3.3l0-3.3l0-0.8c0-0.3,0.1-0.8,0.3-1.2c0.2-0.3,0.5-0.6,0.9-0.9c0.6-0.2,0.7-0.2,1-0.2l6.4-0.9
					l-0.6,0.5c0.4-1.2,0.9-2.4,1.5-3.6l0.1,0.7l-4-5.2c-0.2-0.2-0.4-0.6-0.5-1l0-0.2l0-0.2c0-0.1,0-0.2,0-0.4c0-0.2,0.1-0.4,0.2-0.5
					c0.2-0.3,0.4-0.6,0.5-0.8l0.5-0.6c0.7-0.8,1.5-1.6,2.3-2.4c0.8-0.8,1.6-1.5,2.4-2.3c0.4-0.4,0.9-0.7,1.4-1
					c0.2-0.1,0.3-0.1,0.6-0.2l0.1,0c0.1,0,0.1,0,0.2,0c0.1,0,0.2,0,0.3,0c0.4,0.1,0.7,0.3,1,0.5l5.1,4l-0.6-0.1
					c1.1-0.6,2.3-1.1,3.5-1.4l-0.4,0.5c0.2-1.6,0.4-3.2,0.7-4.8l0.2-1.2c0.1-0.4,0.2-0.8,0.3-1.2c0.1-0.5,0.6-1,1.1-1.2
					c0.3-0.1,0.5-0.1,0.7-0.1l0.6,0l4.8,0l2.4,0c0.2,0,0.4,0,0.6,0c0.3,0,0.5,0.1,0.7,0.2c0.4,0.2,0.8,0.7,0.8,1.3l0,0l1,6.9
					l-0.2-0.3c1.2,0.4,2.3,0.9,3.4,1.4l-0.3,0l5.4-4l0,0c0.4-0.4,1-0.5,1.5-0.3c0.3,0.1,0.5,0.2,0.7,0.4l0.5,0.5l2,1.9
					c0.6,0.6,1.3,1.3,1.9,2c0.6,0.7,1.2,1.4,1.8,2.1l0,0c0.3,0.3,0.3,0.7,0.3,1.1c0,0.4-0.3,0.7-0.5,1l-1.3,1.6l-2.5,3.3l0-0.1
					c0.6,1.2,1.1,2.4,1.5,3.7l-0.1-0.1l3.9,0.6l2,0.3l1,0.1C719.6,250.6,719.9,250.8,720.1,251z"/>
				<path class="st3" d="M698.4,262.9c0,0-0.2,0.2-0.5,0.5c-0.3,0.3-0.9,0.7-1.6,1.1c-0.7,0.4-1.7,0.8-2.8,1.1
					c-1.1,0.3-2.5,0.4-3.9,0.2c-1.4-0.2-3-0.8-4.3-1.8c-1.4-1-2.5-2.4-3.3-4.2c-0.4-0.9-0.6-1.8-0.7-2.8c-0.1-0.5-0.1-1-0.1-1.4
					c0-0.5,0.1-1,0.1-1.5c0.3-2,1.3-3.9,2.8-5.3c1.4-1.5,3.3-2.6,5.3-3c1-0.2,2-0.3,3-0.2c1,0.1,2,0.3,2.9,0.6
					c1.8,0.7,3.4,2,4.4,3.4c1.1,1.4,1.7,3.1,1.8,4.6c0.2,1.5,0,2.9-0.3,4c-0.3,1.2-0.8,2.1-1.3,2.8c-0.5,0.7-0.9,1.2-1.2,1.5
					C698.6,262.8,698.4,262.9,698.4,262.9z M698.3,262.8c0,0,0.2-0.2,0.4-0.5c0.3-0.3,0.7-0.8,1.1-1.6c0.4-0.7,0.7-1.7,0.8-2.8
					c0.1-1.1,0.1-2.4-0.3-3.6c-0.4-1.3-1-2.5-2-3.6c-1-1.1-2.2-2.1-3.7-2.6c-1.4-0.6-3.2-0.7-4.8-0.5c-1.7,0.2-3.2,1.1-4.5,2.3
					c-1.3,1.2-2.2,2.8-2.5,4.4c-0.1,0.4-0.1,0.9-0.2,1.3c0,0.5,0,0.9,0,1.3c0,0.9,0.2,1.7,0.5,2.5c0.5,1.6,1.6,2.9,2.8,3.9
					c1.2,1,2.5,1.7,3.9,2c1.3,0.3,2.6,0.3,3.8,0.1c1.1-0.2,2.1-0.6,2.8-1c0.7-0.4,1.2-0.8,1.5-1.1
					C698.1,263,698.3,262.8,698.3,262.8z"/>
			</g>
		</g>
	</g>
	<g>
		<path class="st11" d="M600.4,252.4c-0.2-0.3-0.5-0.4-0.8-0.5l-6.9-1.1c-0.4-1.2-0.9-2.4-1.5-3.7c0.4-0.6,1.1-1.5,2-2.6
			c0.9-1.1,1.5-2,1.9-2.5c0.2-0.3,0.3-0.6,0.3-0.9c0-0.4-0.1-0.6-0.3-0.8c-0.9-1.3-3-3.4-6.2-6.4c-0.3-0.3-0.6-0.4-0.9-0.4
			c-0.4,0-0.7,0.1-0.9,0.3l-5.3,4c-1-0.5-2.2-1-3.4-1.4l-1.1-6.9c0-0.3-0.2-0.6-0.4-0.8c-0.3-0.2-0.6-0.3-0.9-0.3h-8.3
			c-0.7,0-1.2,0.4-1.4,1.1c-0.3,1.3-0.7,3.6-1.1,7c-1.2,0.4-2.3,0.9-3.4,1.4l-5.2-4c-0.3-0.3-0.7-0.4-1-0.4c-0.6,0-1.7,0.9-3.5,2.7
			c-1.8,1.8-3,3.1-3.7,4c-0.2,0.3-0.3,0.6-0.3,0.9c0,0.3,0.1,0.6,0.4,0.9c1.7,2,3,3.8,4,5.2c-0.6,1.2-1.1,2.3-1.5,3.5l-7,1.1
			c-0.3,0.1-0.5,0.2-0.7,0.5c-0.2,0.3-0.3,0.6-0.3,0.9v8.3c0,0.3,0.1,0.6,0.3,0.9c0.2,0.3,0.5,0.4,0.8,0.5l6.9,1
			c0.4,1.2,0.9,2.5,1.5,3.7c-0.5,0.6-1.1,1.5-2,2.6c-0.9,1.1-1.5,2-1.9,2.5c-0.2,0.3-0.3,0.6-0.3,0.9c0,0.3,0.1,0.6,0.3,0.9
			c1,1.4,3,3.5,6.2,6.3c0.3,0.3,0.6,0.4,0.9,0.4c0.4,0,0.7-0.1,0.9-0.3l5.3-4c1,0.5,2.2,1,3.4,1.4l1.1,6.9c0,0.3,0.2,0.6,0.4,0.8
			c0.3,0.2,0.6,0.3,0.9,0.3h8.3c0.7,0,1.2-0.4,1.4-1.1c0.3-1.3,0.7-3.6,1.1-7c1.2-0.4,2.3-0.9,3.4-1.4l5.2,4.1
			c0.4,0.2,0.7,0.3,1,0.3c0.6,0,1.7-0.9,3.5-2.7c1.8-1.8,3-3.1,3.7-4.1c0.2-0.3,0.3-0.5,0.3-0.9c0-0.3-0.1-0.6-0.4-0.9
			c-1.8-2.2-3.1-3.9-4-5.2c0.5-0.9,1-2.1,1.5-3.4l6.9-1.1c0.3-0.1,0.6-0.2,0.8-0.5c0.2-0.3,0.3-0.6,0.3-0.9v-8.3
			C600.7,252.9,600.6,252.6,600.4,252.4z M578.6,264.1c-1.9,1.9-4.1,2.8-6.8,2.8c-2.7,0-4.9-0.9-6.8-2.8c-1.9-1.9-2.8-4.1-2.8-6.8
			c0-2.7,0.9-4.9,2.8-6.8c1.9-1.9,4.1-2.8,6.8-2.8c2.7,0,4.9,0.9,6.8,2.8c1.9,1.9,2.8,4.1,2.8,6.8
			C581.4,260,580.5,262.3,578.6,264.1z"/>
	</g>
	<g>
		<g>
			<g>
				<path class="st3" d="M600.5,252.1c-0.2-0.3-0.5-0.4-0.8-0.4l-1-0.1l-2-0.3l-3.9-0.6l-0.1,0l0-0.1c-0.4-1.3-0.9-2.5-1.5-3.7
					l0-0.1l0,0l2.5-3.3l1.2-1.7c0.2-0.3,0.4-0.5,0.4-0.9c0-0.3,0-0.7-0.2-0.9l0,0l0,0c-1.1-1.4-2.4-2.7-3.7-4l-2-1.9l-0.5-0.5
					c-0.1-0.1-0.3-0.2-0.5-0.3c-0.4-0.1-0.8,0-1.1,0.2l0,0l0,0l-5.3,4.1l-0.1,0.1l-0.2-0.1c-1.1-0.5-2.2-1-3.3-1.3l-0.2-0.1l0-0.2
					l-1.1-6.9l0,0l0,0c0-0.3-0.2-0.5-0.5-0.6c-0.2-0.1-0.5-0.1-1-0.1l-2.4,0l-4.8,0l-0.6,0c-0.2,0-0.3,0-0.4,0.1
					c-0.2,0.1-0.4,0.2-0.5,0.5c-0.1,0.3-0.2,0.7-0.2,1.1l-0.2,1.2c-0.2,1.6-0.4,3.2-0.6,4.7l0,0.3l-0.3,0.1
					c-1.1,0.4-2.3,0.8-3.3,1.4l-0.3,0.2l-0.3-0.2l-5.2-4c-0.3-0.3-0.7-0.3-0.9-0.2c-0.4,0.2-0.8,0.5-1.2,0.9
					c-0.8,0.7-1.6,1.4-2.3,2.2c-0.8,0.8-1.5,1.5-2.2,2.4l-0.5,0.6c-0.2,0.2-0.3,0.4-0.4,0.6c0,0.1-0.1,0.2-0.1,0.2l0,0.1
					c0,0,0,0.1,0,0.1l0,0c0,0.1,0.1,0.2,0.3,0.4l4,5.1l0.3,0.3l-0.2,0.4c-0.6,1.1-1,2.2-1.4,3.3l-0.1,0.4l-0.4,0.1l-6.4,1
					c-0.2,0-0.6,0.1-0.6,0.1c-0.1,0-0.2,0.1-0.2,0.3c-0.1,0.2-0.1,0.2-0.1,0.4l0,0.8l0,3.3l0,3.3l0,0.8c0,0.2,0,0.2,0,0.3
					c0,0.1,0,0.1,0.1,0.2c0.1,0.1,0.1,0.2,0.2,0.2c0,0,0.1,0,0.1,0l0.4,0.1l6.4,0.9l0.5,0.1l0.2,0.5c0.4,1.2,0.9,2.4,1.5,3.5
					l0.3,0.5l-0.3,0.4l-2.9,3.9l-0.7,1l-0.2,0.2c-0.1,0.1-0.1,0.2-0.1,0.2c0,0.1-0.1,0.1-0.1,0.2c0,0,0,0.2,0,0.2
					c0,0.1,0,0.1,0.1,0.2c0.2,0.3,0.5,0.6,0.7,0.9c1,1.2,2.2,2.3,3.3,3.3l1.8,1.6l0.2,0.2c0.1,0.1,0.1,0.1,0.1,0.1
					c0.1,0,0.1,0,0.1,0c0.1,0,0.3,0,0.3-0.1l0,0l0.1,0l5.3-4l0.5-0.4l0.6,0.3c1,0.5,2.1,1,3.2,1.3l0.6,0.2l0.1,0.6l1,6.9l0,0.1
					c0,0.1,0,0,0.1,0.1c0,0,0.1,0,0.2,0l0.5,0l2.4,0l4.8,0l0.6,0c0.2,0,0.2,0,0.3,0c0.1,0,0.1,0,0.2-0.2c0.1-0.3,0.2-0.7,0.3-1.1
					l0.2-1.2c0.3-1.6,0.5-3.1,0.7-4.7l0.1-0.6l0.5-0.2c1.1-0.3,2.2-0.8,3.3-1.3l0.5-0.3l0.4,0.3c1.7,1.4,3.4,2.7,5.1,4.1l-0.1,0
					c0.1,0.1,0.3,0.2,0.4,0.2c0.1,0,0.2,0,0.2,0c0.3-0.1,0.6-0.4,1-0.6c0.7-0.5,1.4-1.1,2-1.8c1.3-1.3,2.7-2.5,3.7-3.9l0,0l0,0
					c0.2-0.2,0.2-0.3,0.2-0.6c0-0.1,0-0.2-0.1-0.3c0-0.1-0.1-0.2-0.3-0.4l-1.3-1.7l-2.5-3.4l-0.1-0.2l0.1-0.2
					c0.6-1.1,1.1-2.2,1.5-3.3l0.1-0.2l0.2,0l4.5-0.6l2.2-0.3c0.4,0,0.6-0.1,0.8-0.4c0.2-0.3,0.3-0.6,0.3-0.9l0-4.5l0-2.3l0-1.1
					C600.8,252.7,600.7,252.3,600.5,252.1z M600.7,251.9c0.3,0.3,0.4,0.8,0.3,1.1l0,1.1l0,2.3l0,4.5c0,0.4-0.1,0.9-0.3,1.2
					c-0.1,0.2-0.3,0.3-0.5,0.4c-0.2,0.1-0.4,0.1-0.6,0.2l-2.2,0.4l-4.5,0.7l0.2-0.2c-0.4,1.2-0.8,2.4-1.4,3.5l0-0.4l2.7,3.3l1.3,1.7
					l0.2,0.2c0.1,0.1,0.1,0.2,0.2,0.3c0.1,0.2,0.2,0.4,0.2,0.7c0.1,0.5-0.1,1-0.4,1.4l0,0c-0.6,0.8-1.2,1.5-1.8,2.2
					c-0.6,0.7-1.3,1.4-1.9,2c-0.7,0.7-1.3,1.3-2.1,1.9c-0.4,0.3-0.7,0.6-1.3,0.9c-0.4,0.2-0.8,0.1-1.1,0.1c-0.3-0.1-0.6-0.2-0.8-0.4
					l0,0l0,0c-1.8-1.3-3.5-2.6-5.2-4l0.9,0.1c-1.1,0.6-2.3,1.1-3.5,1.5l0.6-0.8c-0.2,1.6-0.4,3.2-0.6,4.8l-0.2,1.2
					c-0.1,0.4-0.1,0.8-0.3,1.3c-0.1,0.3-0.2,0.6-0.5,0.9c-0.2,0.3-0.6,0.5-0.9,0.6c-0.3,0.1-0.7,0.1-0.9,0.1l-0.6,0l-4.8,0l-2.4,0
					l-0.3,0c-0.1,0-0.2,0-0.4,0c-0.3,0-0.7-0.1-1-0.3c-0.3-0.2-0.6-0.4-0.8-0.7c-0.2-0.3-0.4-0.7-0.4-1.1l0,0.1l-1.1-6.9l0.7,0.8
					c-1.2-0.4-2.4-0.9-3.5-1.5l1.1-0.1l-5.3,4l0.1-0.1c-0.3,0.2-0.6,0.4-0.9,0.5c-0.4,0.1-0.6,0.1-1,0.1c-0.4-0.1-0.7-0.2-1-0.4
					c-0.1-0.1-0.3-0.3-0.3-0.3l-0.2-0.2l-1.8-1.7c-1.2-1.1-2.3-2.3-3.4-3.5c-0.3-0.3-0.6-0.7-0.8-1c-0.2-0.2-0.3-0.5-0.4-0.9
					c-0.1-0.3-0.1-0.6-0.1-1c0-0.3,0.2-0.7,0.3-0.9c0.1-0.2,0.2-0.2,0.2-0.3l0.2-0.2l0.7-1l2.9-3.8l-0.1,0.9
					c-0.7-1.2-1.2-2.5-1.6-3.9l0.7,0.6l-6.4-1l-0.4-0.1c-0.2,0-0.4-0.1-0.6-0.2c-0.4-0.2-0.7-0.6-0.9-0.9c-0.1-0.2-0.2-0.4-0.2-0.6
					c0-0.2,0-0.5,0-0.6l0-0.8l0-3.3l0-3.3l0-0.8c0-0.3,0.1-0.8,0.3-1.2c0.2-0.3,0.5-0.6,0.9-0.9c0.6-0.2,0.7-0.2,1-0.2l6.4-0.9
					l-0.6,0.5c0.4-1.2,0.9-2.4,1.5-3.6l0.1,0.7l-4-5.2c-0.2-0.2-0.4-0.6-0.5-1l0-0.2l0-0.2c0-0.1,0-0.2,0-0.4c0-0.2,0.1-0.4,0.2-0.5
					c0.2-0.3,0.4-0.6,0.5-0.8l0.5-0.6c0.7-0.8,1.5-1.6,2.3-2.4c0.8-0.8,1.6-1.5,2.4-2.3c0.4-0.4,0.9-0.7,1.4-1
					c0.2-0.1,0.3-0.1,0.6-0.2l0.1,0c0.1,0,0.1,0,0.2,0c0.1,0,0.2,0,0.3,0c0.4,0.1,0.7,0.3,1,0.5l5.1,4l-0.6-0.1
					c1.1-0.6,2.3-1.1,3.5-1.4l-0.4,0.5c0.2-1.6,0.4-3.2,0.7-4.8l0.2-1.2c0.1-0.4,0.2-0.8,0.3-1.2c0.1-0.5,0.6-1,1.1-1.2
					c0.3-0.1,0.5-0.1,0.7-0.1l0.6,0l4.8,0l2.4,0c0.2,0,0.4,0,0.6,0c0.3,0,0.5,0.1,0.7,0.2c0.4,0.2,0.8,0.7,0.8,1.3l0,0l1,6.9
					l-0.2-0.3c1.2,0.4,2.3,0.9,3.4,1.4l-0.3,0l5.4-4l0,0c0.4-0.4,1-0.5,1.5-0.3c0.3,0.1,0.5,0.2,0.7,0.4l0.5,0.5l2,1.9
					c0.6,0.6,1.3,1.3,1.9,2c0.6,0.7,1.2,1.4,1.8,2.1l0,0c0.3,0.3,0.3,0.7,0.3,1.1c0,0.4-0.3,0.7-0.5,1l-1.3,1.6l-2.5,3.3l0-0.1
					c0.6,1.2,1.1,2.4,1.5,3.7l-0.1-0.1l3.9,0.6l2,0.3l1,0.1C600.1,251.5,600.4,251.6,600.7,251.9z"/>
				<path class="st3" d="M578.9,263.8c0,0-0.2,0.2-0.5,0.5c-0.3,0.3-0.9,0.7-1.6,1.1c-0.7,0.4-1.7,0.8-2.8,1.1
					c-1.1,0.3-2.5,0.4-3.9,0.2c-1.4-0.2-3-0.8-4.3-1.8c-1.4-1-2.5-2.4-3.3-4.2c-0.4-0.9-0.6-1.8-0.7-2.8c-0.1-0.5-0.1-1-0.1-1.4
					c0-0.5,0.1-1,0.1-1.5c0.3-2,1.3-3.9,2.8-5.3c1.4-1.5,3.3-2.6,5.3-3c1-0.2,2-0.3,3-0.2c1,0.1,2,0.3,2.9,0.6
					c1.8,0.7,3.4,2,4.4,3.4c1.1,1.4,1.7,3.1,1.8,4.6c0.2,1.5,0,2.9-0.3,4c-0.3,1.2-0.8,2.1-1.3,2.8c-0.5,0.7-0.9,1.2-1.2,1.5
					C579.1,263.7,578.9,263.8,578.9,263.8z M578.8,263.7c0,0,0.2-0.2,0.4-0.5c0.3-0.3,0.7-0.8,1.1-1.6c0.4-0.7,0.7-1.7,0.8-2.8
					c0.1-1.1,0.1-2.4-0.3-3.6c-0.4-1.3-1-2.5-2-3.6c-1-1.1-2.2-2.1-3.7-2.6c-1.4-0.6-3.2-0.7-4.8-0.5c-1.7,0.2-3.2,1.1-4.5,2.3
					c-1.3,1.2-2.2,2.8-2.5,4.4c-0.1,0.4-0.1,0.9-0.2,1.3c0,0.5,0,0.9,0,1.3c0,0.9,0.2,1.7,0.5,2.5c0.5,1.6,1.6,2.9,2.8,3.9
					c1.2,1,2.5,1.7,3.9,2c1.3,0.3,2.6,0.3,3.8,0.1c1.1-0.2,2.1-0.6,2.8-1c0.7-0.4,1.2-0.8,1.5-1.1
					C578.6,263.9,578.8,263.7,578.8,263.7z"/>
			</g>
		</g>
	</g>
	<g>
		<g>
			<polygon class="st10" points="689.1,291.4 683.1,291.4 683.1,291.4 			"/>
			<polygon class="st10" points="677.2,291.4 671.2,291.4 671.2,291.4 677.2,291.4 			"/>
			<polygon class="st10" points="665.3,291.5 659.3,291.5 659.3,291.3 665.3,291.4 			"/>
			<polygon class="st10" points="653.3,291.5 647.4,291.5 647.4,291.3 653.3,291.3 			"/>
			<polygon class="st10" points="641.4,291.5 635.5,291.5 635.5,291.3 641.4,291.3 			"/>
			<polygon class="st10" points="629.5,291.5 623.6,291.5 623.6,291.3 629.5,291.3 			"/>
			<polygon class="st10" points="617.6,291.6 611.6,291.6 611.6,291.2 617.6,291.2 			"/>
			<polygon class="st10" points="605.7,291.6 599.7,291.6 599.7,291.2 605.7,291.2 			"/>
			<polygon class="st10" points="593.8,291.6 587.8,291.6 587.8,291.2 593.8,291.2 			"/>
			<polygon class="st10" points="581.8,291.6 575.9,291.7 575.9,291.2 581.8,291.2 			"/>
			<path class="st10" d="M569.9,291.7c0,0-1.5,0-3-0.2c-1.5-0.2-3-0.5-3-0.5l0.1-0.5c0,0,1.4,0.3,2.9,0.5c1.5,0.2,3,0.2,3,0.2
				L569.9,291.7z"/>
			<path class="st10" d="M558.2,289.3c0,0-1.4-0.5-2.7-1.2c-1.3-0.7-2.6-1.5-2.6-1.5l0.3-0.5c0,0,1.3,0.8,2.6,1.4
				c1.3,0.7,2.7,1.2,2.7,1.2L558.2,289.3z"/>
			<path class="st10" d="M548,283c0,0-1.1-1-2.2-2.1c-1-1.1-2-2.3-2-2.3l0.5-0.4c0,0,0.9,1.2,1.9,2.2c1,1.1,2.1,2,2.1,2L548,283z"/>
			<path class="st10" d="M540.5,273.7c0,0-0.7-1.3-1.3-2.7c-0.6-1.4-1.1-2.8-1.1-2.8l0.7-0.2c0,0,0.5,1.4,1.1,2.7
				c0.6,1.4,1.3,2.6,1.3,2.6L540.5,273.7z"/>
			<path class="st10" d="M536.5,262.4c0,0-0.2-1.5-0.3-3c-0.1-1.5-0.1-3-0.1-3l0.8,0c0,0,0,1.5,0.1,2.9c0.1,1.5,0.3,2.9,0.3,2.9
				L536.5,262.4z"/>
			<path class="st10" d="M536.7,250.4c0,0,0.3-1.5,0.7-2.9c0.4-1.5,0.9-2.9,0.9-2.9l0.8,0.3c0,0-0.5,1.4-0.9,2.8
				c-0.4,1.4-0.7,2.9-0.7,2.9L536.7,250.4z"/>
			<path class="st10" d="M540.9,239.2c0,0,0.8-1.3,1.6-2.5c0.9-1.2,1.8-2.4,1.8-2.4l0.7,0.6c0,0-1,1.1-1.8,2.3
				c-0.9,1.2-1.6,2.5-1.6,2.5L540.9,239.2z"/>
			<path class="st10" d="M548.6,230c0,0,1.2-1,2.4-1.8c1.2-0.9,2.5-1.6,2.5-1.6l0.5,0.8c0,0-1.3,0.7-2.5,1.6
				c-1.2,0.8-2.3,1.8-2.3,1.8L548.6,230z"/>
			<path class="st10" d="M559,224c0,0,1.4-0.5,2.9-0.9c1.5-0.4,2.9-0.7,2.9-0.7l0.2,1c0,0-1.4,0.2-2.9,0.6c-1.4,0.4-2.8,0.9-2.8,0.9
				L559,224z"/>
			<polygon class="st10" points="570.9,221.9 576.8,221.9 576.8,222.9 570.9,222.9 			"/>
			<polygon class="st10" points="582.8,221.9 588.7,221.9 588.7,222.9 582.8,222.9 			"/>
			<polygon class="st10" points="594.7,221.9 600.7,222 600.7,222.8 594.7,222.8 			"/>
			<polygon class="st10" points="606.6,222 612.6,222 612.6,222.8 606.6,222.8 			"/>
			<polygon class="st10" points="618.5,222 624.5,222 624.5,222.8 618.5,222.8 			"/>
			<polygon class="st10" points="630.4,222 636.4,222 636.4,222.7 630.4,222.8 			"/>
			<polygon class="st10" points="642.4,222 648.3,222.1 648.3,222.7 642.4,222.7 			"/>
			<polygon class="st10" points="654.3,222.1 660.2,222.1 660.2,222.7 654.3,222.7 			"/>
			<polygon class="st10" points="666.2,222.1 672.2,222.1 672.2,222.7 666.2,222.7 			"/>
			<polygon class="st10" points="678.1,222.1 684.1,222.1 684.1,222.6 678.1,222.7 			"/>
			<path class="st10" d="M690,222.2c0,0,1.5,0,3,0.2c1.5,0.2,3,0.5,3,0.5l-0.1,0.4c0,0-1.5-0.3-2.9-0.5c-1.5-0.2-3-0.2-3-0.2
				L690,222.2z"/>
			<path class="st10" d="M701.7,224.6c0,0,1.4,0.5,2.7,1.2c1.3,0.7,2.6,1.5,2.6,1.5l-0.2,0.3c0,0-1.3-0.8-2.6-1.4
				c-1.3-0.7-2.7-1.2-2.7-1.2L701.7,224.6z"/>
			<path class="st10" d="M711.9,230.8c0,0,1.1,1,2.2,2.1c1,1.1,2,2.3,2,2.3l-0.3,0.2c0,0-0.9-1.2-2-2.2c-1-1.1-2.1-2-2.1-2
				L711.9,230.8z"/>
			<path class="st10" d="M719.3,240.1c0,0,0.7,1.3,1.3,2.7c0.6,1.4,1.1,2.8,1.1,2.8l-0.3,0.1c0,0-0.5-1.4-1.1-2.8
				c-0.6-1.4-1.3-2.6-1.3-2.6L719.3,240.1z"/>
			<path class="st10" d="M723.2,251.4c0,0,0.2,1.5,0.3,3c0.1,1.5,0.1,3,0.1,3l-0.2,0c0,0,0-1.5-0.1-3c-0.1-1.5-0.3-2.9-0.3-2.9
				L723.2,251.4z"/>
			<path class="st10" d="M723,263.3c0,0-0.3,1.5-0.7,2.9c-0.4,1.4-0.9,2.8-0.9,2.8l-0.2-0.1c0,0,0.5-1.4,0.9-2.8
				c0.4-1.4,0.7-2.9,0.7-2.9L723,263.3z"/>
			<path class="st10" d="M718.8,274.4c0,0-0.8,1.3-1.6,2.5c-0.9,1.2-1.8,2.4-1.8,2.4l-0.1-0.1c0,0,1-1.1,1.8-2.3
				c0.9-1.2,1.6-2.5,1.6-2.5L718.8,274.4z"/>
			<path class="st10" d="M711.1,283.4c0,0-1.1,1-2.4,1.8c-1.2,0.9-2.5,1.6-2.5,1.6l0-0.1c0,0,1.3-0.7,2.5-1.6
				C709.9,284.3,711.1,283.4,711.1,283.4L711.1,283.4z"/>
			<path class="st10" d="M700.8,289.4c0,0-1.4,0.5-2.8,0.9c-1.4,0.4-2.9,0.6-2.9,0.6l0,0c0,0,1.5-0.3,2.9-0.7
				C699.4,289.8,700.8,289.3,700.8,289.4L700.8,289.4z"/>
		</g>
	</g>
	<circle class="st12" cx="631.3" cy="257.3" r="30.2"/>
	<g>
		<g>
			<path class="st3" d="M638.3,263.7c0,0-0.2,0.2-0.5,0.5c-0.3,0.3-0.9,0.7-1.6,1.1c-0.7,0.4-1.7,0.8-2.8,1.1
				c-1.1,0.3-2.5,0.4-3.9,0.2c-1.4-0.2-3-0.8-4.3-1.8c-1.4-1-2.5-2.4-3.3-4.2c-0.4-0.9-0.6-1.8-0.7-2.8c-0.1-0.5-0.1-1-0.1-1.4
				c0-0.5,0.1-1,0.1-1.5c0.3-2,1.3-3.9,2.8-5.3c1.4-1.5,3.3-2.6,5.3-3c1-0.2,2-0.3,3-0.2c1,0.1,2,0.3,2.9,0.6c1.8,0.7,3.4,2,4.4,3.4
				c1.1,1.4,1.7,3.1,1.8,4.6c0.2,1.5,0,2.9-0.3,4c-0.3,1.2-0.8,2.1-1.3,2.8c-0.5,0.7-0.9,1.2-1.2,1.5
				C638.5,263.5,638.3,263.7,638.3,263.7z M638.2,263.6c0,0,0.2-0.2,0.4-0.5c0.3-0.3,0.7-0.8,1.1-1.6c0.4-0.7,0.7-1.7,0.8-2.8
				c0.1-1.1,0.1-2.4-0.3-3.6c-0.4-1.3-1-2.5-2-3.6c-1-1.1-2.2-2.1-3.7-2.6c-1.4-0.6-3.2-0.7-4.8-0.5c-1.7,0.2-3.2,1.1-4.5,2.3
				c-1.3,1.2-2.2,2.8-2.5,4.4c-0.1,0.4-0.1,0.9-0.2,1.3c0,0.5,0,0.9,0,1.3c0,0.9,0.2,1.7,0.5,2.5c0.5,1.6,1.6,2.9,2.8,3.9
				c1.2,1,2.5,1.7,3.9,2c1.3,0.3,2.6,0.3,3.8,0.1c1.1-0.2,2.1-0.6,2.8-1c0.7-0.4,1.2-0.8,1.5-1.1C638,263.7,638.2,263.6,638.2,263.6
				z"/>
		</g>
	</g>
	<circle class="st12" cx="578.5" cy="155.5" r="29.8"/>
	<g>
		<g>
			<path class="st13" d="M609.3,118.9c-0.2-0.3-0.5-0.4-0.8-0.5l-6.7-1c-0.4-1.2-0.9-2.4-1.5-3.6c0.4-0.6,1.1-1.5,2-2.6
				c0.9-1.1,1.5-1.9,1.9-2.5c0.2-0.3,0.3-0.6,0.3-0.8c0-0.3-0.1-0.6-0.3-0.8c-0.9-1.3-2.9-3.3-6.1-6.3c-0.3-0.2-0.6-0.4-0.9-0.4
				c-0.4,0-0.7,0.1-0.9,0.3l-5.2,3.9c-1-0.5-2.1-1-3.3-1.4l-1-6.8c0-0.3-0.2-0.6-0.4-0.8c-0.3-0.2-0.6-0.3-0.9-0.3h-8.2
				c-0.7,0-1.2,0.3-1.3,1c-0.3,1.2-0.7,3.5-1.1,6.9c-1.2,0.4-2.3,0.8-3.4,1.4l-5.1-3.9c-0.3-0.2-0.6-0.4-1-0.4
				c-0.5,0-1.7,0.9-3.5,2.6c-1.8,1.8-3,3.1-3.6,4c-0.2,0.3-0.3,0.6-0.3,0.8c0,0.3,0.1,0.6,0.4,0.9c1.6,2,3,3.7,3.9,5.1
				c-0.6,1.1-1.1,2.3-1.4,3.4l-6.9,1c-0.3,0-0.5,0.2-0.7,0.5c-0.2,0.3-0.3,0.6-0.3,0.8v8.2c0,0.3,0.1,0.6,0.3,0.9
				c0.2,0.3,0.5,0.4,0.8,0.5l6.7,1c0.3,1.2,0.8,2.4,1.5,3.6c-0.4,0.6-1.1,1.5-2,2.6c-0.9,1.1-1.5,1.9-1.9,2.5
				c-0.2,0.3-0.3,0.6-0.3,0.8c0,0.3,0.1,0.6,0.3,0.8c1,1.3,3,3.4,6.1,6.2c0.3,0.3,0.6,0.4,0.9,0.4c0.4,0,0.7-0.1,0.9-0.3l5.2-3.9
				c1,0.5,2.1,1,3.3,1.4l1,6.8c0,0.3,0.2,0.6,0.4,0.8c0.3,0.2,0.6,0.3,0.9,0.3h8.2c0.7,0,1.2-0.3,1.3-1c0.3-1.2,0.7-3.5,1.1-6.9
				c1.2-0.4,2.3-0.8,3.4-1.4l5.1,4c0.3,0.2,0.7,0.3,1,0.3c0.5,0,1.7-0.9,3.5-2.6c1.8-1.7,3-3.1,3.6-4c0.2-0.2,0.3-0.5,0.3-0.8
				c0-0.3-0.1-0.6-0.4-0.9c-1.8-2.2-3.1-3.9-3.9-5.1c0.5-0.9,1-2,1.4-3.4l6.8-1c0.3,0,0.5-0.2,0.7-0.5c0.2-0.3,0.3-0.6,0.3-0.8v-8.2
				C609.6,119.5,609.5,119.2,609.3,118.9z M588,130.5c-1.8,1.8-4.1,2.8-6.7,2.8c-2.6,0-4.8-0.9-6.7-2.8c-1.8-1.8-2.8-4.1-2.8-6.7
				c0-2.6,0.9-4.8,2.8-6.7c1.8-1.8,4.1-2.8,6.7-2.8c2.6,0,4.8,0.9,6.7,2.8c1.8,1.8,2.8,4.1,2.8,6.7
				C590.7,126.4,589.8,128.7,588,130.5z"/>
			<g>
				<path class="st10" d="M609.3,118.9c-0.2-0.3-0.5-0.4-0.8-0.5l-1-0.1l-1.9-0.3l-3.8-0.6l0,0l0,0c-0.4-1.2-0.9-2.4-1.5-3.6l0,0
					l0,0l2.5-3.2l1.2-1.6c0.2-0.3,0.4-0.5,0.4-0.9c0-0.3,0-0.7-0.2-0.9l0,0l0,0c-1.1-1.4-2.4-2.7-3.6-3.9l-1.9-1.8
					c-0.3-0.3-0.6-0.7-1-0.8c-0.4-0.1-0.9,0-1.2,0.3l0,0l0,0l-5.2,4l-0.1,0l-0.1,0c-1.1-0.5-2.2-1-3.3-1.3l-0.1,0l0-0.1l-1.1-6.8
					l0,0l0,0c0-0.3-0.2-0.6-0.5-0.8c-0.3-0.2-0.7-0.1-1.1-0.1l-2.4,0l-4.7,0c-0.4,0-0.8,0-1.1,0.1c-0.3,0.1-0.5,0.3-0.6,0.7
					c-0.2,0.7-0.3,1.5-0.4,2.3c-0.2,1.5-0.4,3.1-0.6,4.7l0,0.2l-0.2,0.1c-1.1,0.4-2.2,0.8-3.3,1.4l-0.2,0.1l-0.2-0.1l-5.1-3.9
					c-0.4-0.3-0.8-0.4-1.1-0.2c-0.4,0.2-0.8,0.6-1.2,0.9c-0.8,0.7-1.5,1.4-2.3,2.2c-0.7,0.8-1.5,1.5-2.2,2.3
					c-0.3,0.4-0.7,0.8-0.9,1.2c-0.2,0.4-0.1,0.6,0.2,1l3.9,5.1l0.2,0.2l-0.1,0.3c-0.6,1.1-1,2.2-1.4,3.3l-0.1,0.3l-0.3,0l-6.3,1
					c-0.2,0-0.6,0.1-0.6,0.1c-0.1,0.1-0.3,0.2-0.4,0.4c-0.1,0.2-0.1,0.3-0.1,0.5l0,0.8l0,3.2l0,3.2l0,0.8c0,0.3,0,0.4,0.1,0.5
					c0.1,0.2,0.2,0.3,0.3,0.3c0.1,0,0.1,0.1,0.2,0.1l0.4,0.1l6.3,0.9l0.3,0l0.1,0.3c0.3,1.2,0.9,2.4,1.5,3.6l0.1,0.3l-0.2,0.2
					l-2.9,3.8l-0.7,0.9c-0.3,0.3-0.4,0.6-0.5,0.8c0,0.3,0,0.5,0.2,0.8c0.2,0.3,0.5,0.6,0.7,0.9c1,1.2,2.1,2.3,3.3,3.3l1.7,1.6
					c0.3,0.3,0.5,0.5,0.8,0.5c0.3,0,0.6,0,0.8-0.2l0,0l0,0l5.2-3.9l0.2-0.1l0.2,0.1c1,0.5,2.1,1,3.3,1.4l0.2,0.1l0,0.2l1,6.8l0,0
					l0,0c0,0.3,0.2,0.5,0.5,0.7c0.3,0.2,0.6,0.1,1,0.1l2.4,0l4.7,0c0.4,0,0.8,0,1.1-0.1c0.3-0.1,0.5-0.3,0.6-0.7
					c0.2-0.7,0.3-1.5,0.5-2.3c0.3-1.5,0.5-3.1,0.7-4.7l0-0.1l0.1,0c1.1-0.4,2.3-0.8,3.3-1.4l0.1-0.1l0.1,0.1l5.1,4l0,0
					c0.3,0.2,0.8,0.4,1.2,0.3c0.4-0.2,0.8-0.4,1.1-0.7c0.7-0.6,1.4-1.2,2-1.8c1.3-1.3,2.6-2.5,3.7-4l0,0l0,0
					c0.2-0.2,0.3-0.6,0.3-0.9c0-0.3-0.2-0.6-0.4-0.9l-1.3-1.7l-2.6-3.3l0,0l0,0c0.6-1.1,1-2.2,1.4-3.3l0,0l0,0l4.4-0.7l2.2-0.3
					c0.4,0,0.7-0.2,0.9-0.5c0.2-0.3,0.3-0.7,0.3-1l0-4.5l0-2.2l0-1.1C609.6,119.6,609.5,119.2,609.3,118.9z M609.3,118.9
					c0.2,0.3,0.3,0.7,0.3,1l0,1.1l0,2.2l0,4.5c0,0.4-0.1,0.8-0.3,1.1c-0.2,0.3-0.6,0.5-1,0.5l-2.2,0.3l-4.4,0.7l0,0
					c-0.4,1.1-0.9,2.3-1.4,3.4l0-0.1l2.6,3.3l1.3,1.7c0.2,0.3,0.4,0.6,0.5,1c0,0.4-0.1,0.8-0.3,1l0,0c-1.1,1.4-2.4,2.7-3.6,4
					c-0.6,0.6-1.3,1.3-2,1.8c-0.4,0.3-0.7,0.6-1.2,0.7c-0.5,0.2-1,0-1.4-0.3l0,0l0,0L591,143l0.2,0c-1.1,0.6-2.2,1.1-3.4,1.4
					l0.1-0.2c-0.2,1.6-0.4,3.1-0.6,4.7c-0.1,0.8-0.3,1.6-0.5,2.3c-0.1,0.4-0.5,0.9-0.9,1c-0.5,0.1-0.9,0.1-1.3,0.1l-4.7,0l-2.4,0
					c-0.2,0-0.4,0-0.6,0c-0.2,0-0.5-0.1-0.7-0.2c-0.4-0.2-0.8-0.7-0.8-1.2l0,0l-1.1-6.8l0.2,0.3c-1.2-0.4-2.3-0.8-3.4-1.4l0.4,0
					l-5.2,4l0,0c-0.4,0.4-0.9,0.5-1.4,0.4c-0.3,0-0.5-0.1-0.7-0.3c-0.2-0.2-0.3-0.3-0.5-0.4l-1.7-1.6c-1.2-1.1-2.3-2.2-3.3-3.4
					c-0.3-0.3-0.5-0.6-0.8-0.9c-0.3-0.4-0.5-0.9-0.4-1.4c0.1-0.5,0.4-1,0.6-1.2l0.7-0.9l2.9-3.8l0,0.5c-0.6-1.2-1.2-2.4-1.6-3.7
					l0.4,0.3l-6.3-0.9l-0.4-0.1c-0.2,0-0.4-0.1-0.5-0.2c-0.4-0.2-0.6-0.5-0.8-0.8c-0.2-0.3-0.2-0.7-0.2-1l0-0.8l0-3.2l0-3.2l0-0.8
					c0-0.3,0.1-0.7,0.3-1c0.2-0.3,0.4-0.6,0.8-0.7c0.4-0.2,0.6-0.1,0.9-0.2l6.3-0.9l-0.4,0.3c0.4-1.2,0.9-2.4,1.5-3.5l0,0.5
					l-3.9-5.1c-0.2-0.2-0.4-0.5-0.4-0.9c0-0.1,0-0.2,0-0.3c0-0.1,0-0.2,0-0.3c0-0.2,0.1-0.3,0.2-0.5c0.3-0.6,0.7-0.9,1-1.4
					c0.7-0.8,1.5-1.6,2.2-2.3c0.8-0.8,1.5-1.5,2.4-2.2c0.4-0.3,0.8-0.7,1.4-1c0.6-0.4,1.4-0.1,1.9,0.3l5,4l-0.3,0
					c1.1-0.6,2.2-1,3.4-1.4l-0.2,0.2c0.2-1.6,0.4-3.1,0.7-4.7c0.1-0.8,0.3-1.5,0.5-2.3c0.1-0.4,0.5-0.9,0.9-1
					c0.5-0.1,0.9-0.1,1.2-0.1l4.7,0l2.4,0c0.4,0,0.8,0,1.2,0.2c0.4,0.2,0.7,0.6,0.7,1.1l0,0l1,6.8l-0.1-0.1c1.1,0.4,2.3,0.8,3.3,1.4
					l-0.1,0l5.3-3.9l0,0c0.3-0.3,0.9-0.4,1.3-0.3c0.5,0.1,0.8,0.5,1.1,0.8l1.9,1.9c1.3,1.3,2.6,2.5,3.6,4l0,0c0.2,0.3,0.3,0.7,0.3,1
					c0,0.4-0.2,0.7-0.5,0.9l-1.2,1.6l-2.5,3.2l0,0c0.6,1.2,1.1,2.4,1.5,3.6l0,0l3.8,0.6l1.9,0.3l1,0.1
					C608.8,118.5,609.1,118.7,609.3,118.9z"/>
				<path class="st10" d="M588,130.5c0,0-0.2,0.2-0.5,0.5c-0.3,0.3-0.8,0.7-1.5,1.1c-0.7,0.4-1.6,0.8-2.7,1.1
					c-1.1,0.2-2.4,0.3-3.8,0.1c-1.4-0.2-2.9-0.8-4.1-1.8c-1.3-1-2.4-2.3-3.1-4c-0.7-1.7-0.9-3.6-0.6-5.5c0.3-1.9,1.3-3.7,2.7-5.1
					c1.4-1.4,3.2-2.4,5.1-2.7c1.9-0.3,3.8-0.1,5.5,0.6c1.7,0.7,3,1.9,4,3.1c1,1.3,1.6,2.8,1.8,4.2c0.2,1.4,0.1,2.7-0.1,3.8
					c-0.2,1.1-0.6,2-1.1,2.7c-0.4,0.7-0.8,1.2-1.1,1.5C588.1,130.3,588,130.5,588,130.5z M588,130.5c0,0,0.2-0.2,0.5-0.5
					c0.3-0.3,0.7-0.8,1.1-1.5c0.4-0.7,0.8-1.6,1-2.7c0.2-1.1,0.2-2.4-0.1-3.7c-0.3-1.3-0.9-2.7-1.9-3.9c-1-1.2-2.4-2.2-3.9-2.8
					c-1.6-0.6-3.4-0.6-5.1-0.3c-1.7,0.3-3.3,1.2-4.5,2.5c-1.3,1.2-2.2,2.8-2.5,4.5c-0.3,1.7-0.2,3.5,0.3,5.1
					c0.6,1.6,1.6,2.9,2.8,3.9c1.2,1,2.6,1.7,3.9,1.9c1.3,0.3,2.6,0.2,3.7,0.1c1.1-0.2,2-0.6,2.7-1c0.7-0.4,1.2-0.8,1.5-1.1
					C587.8,130.7,588,130.5,588,130.5z"/>
			</g>
		</g>
	</g>
	<g>
		<g>
			<line class="st1" x1="395.5" y1="253.6" x2="395.6" y2="247.6"/>
			<line class="st14" x1="395.6" y1="236.1" x2="395.8" y2="195.8"/>
			<line class="st1" x1="395.9" y1="190.1" x2="395.9" y2="184.1"/>
		</g>
	</g>
	<g>
		<path class="st15" d="M400,196.3l-2.2,1.5c-0.1,0.1-0.1,0.1-0.2,0.2c0,0.1,0,0.2,0,0.3l1,2c-0.3,0.4-0.5,0.7-0.6,1
			c-0.5,0-1.2,0-2.1-0.1c-0.1,0-0.2,0-0.3,0.1c-0.1,0.1-0.1,0.1-0.2,0.2c-0.1,0.3-0.2,0.9-0.4,1.7c-0.1,0.8-0.2,1.3-0.1,1.4
			c0.1,0.1,0.1,0.1,0.3,0.2l2,0.6c0,0.4,0.1,0.8,0.2,1.2c-0.8,0.7-1.4,1.2-1.6,1.6c-0.2,0.2-0.2,0.4,0,0.5l1.5,2.2
			c0.1,0.1,0.1,0.2,0.3,0.2c0.1,0,0.2,0,0.3,0l2-1c0.3,0.2,0.7,0.5,1,0.6l-0.1,2.1c0,0.1,0,0.2,0.1,0.3c0.1,0.1,0.2,0.1,0.3,0.2
			c1.3,0.3,2.2,0.5,2.8,0.5c0.1,0,0.2,0,0.3-0.1c0.1-0.1,0.1-0.1,0.2-0.2c0.1-0.2,0.2-0.5,0.3-1c0.1-0.4,0.2-0.8,0.3-1
			c0.5-0.1,0.9-0.1,1.3-0.3l1.5,1.6c0.1,0.1,0.2,0.1,0.3,0.1c0.1,0,0.2,0,0.3-0.1l2.2-1.5c0.1-0.1,0.1-0.1,0.2-0.2
			c0-0.1,0-0.2,0-0.3l-1-2c0.2-0.3,0.5-0.6,0.6-1c0.6,0,1.3,0,2.1,0.1c0.1,0,0.2,0,0.3-0.1c0.1,0,0.1-0.1,0.2-0.2
			c0.1-0.3,0.2-0.9,0.4-1.7c0.1-0.8,0.2-1.3,0.1-1.4c-0.1-0.1-0.2-0.1-0.3-0.2l-2-0.6c0-0.4-0.1-0.8-0.2-1.2
			c0.8-0.7,1.4-1.2,1.6-1.6c0.2-0.2,0.2-0.4,0-0.5l-1.5-2.2c-0.1-0.1-0.1-0.2-0.3-0.2c-0.1,0-0.2,0-0.3,0l-2,1
			c-0.3-0.2-0.7-0.5-1-0.6l0.1-2.1c0-0.1,0-0.2-0.1-0.3c-0.1-0.1-0.1-0.1-0.3-0.2c-1.4-0.3-2.3-0.5-2.8-0.5c-0.1,0-0.2,0-0.3,0.1
			c-0.1,0.1-0.1,0.1-0.2,0.2c-0.1,0.2-0.2,0.5-0.3,1c-0.1,0.4-0.2,0.8-0.3,1c-0.4,0.1-0.9,0.1-1.2,0.3l-1.5-1.6
			c-0.1-0.1-0.2-0.1-0.3-0.1C400.2,196.2,400.1,196.2,400,196.3z M402.4,202.1c0.7-0.5,1.5-0.6,2.3-0.5c0.8,0.2,1.5,0.6,2,1.3
			c0.5,0.7,0.6,1.5,0.5,2.3c-0.2,0.8-0.6,1.5-1.3,2c-0.7,0.5-1.5,0.6-2.3,0.5c-0.8-0.2-1.5-0.6-2-1.3c-0.5-0.7-0.6-1.5-0.5-2.3
			C401.3,203.2,401.7,202.5,402.4,202.1z"/>
	</g>
	<g>
		<path class="st16" d="M428.5,180H370c-0.9,0-1.6,0.1-1.6,0.3l-1.6,4.9c0,0.1,0.7,0.3,1.6,0.3l66.1,1.5c0.9,0,1.6-0.1,1.6-0.3
			l-6-6.4C430,180.1,429.3,180,428.5,180z"/>
		<path class="st16" d="M386.6,157.9h-58.4c-0.9,0-1.6,0.1-1.6,0.3l-1.6,4.9c0,0.1,0.7,0.3,1.6,0.3l66.1,1.5c0.9,0,1.6-0.1,1.6-0.3
			l-6-6.4C388.1,158,387.4,157.9,386.6,157.9z"/>
		<path class="st16" d="M494.5,155.2H452c-0.6,0-1.1,0.1-1.1,0.2l-1.2,3.5c0,0.1,0.5,0.2,1.1,0.2l50.1-0.7c0.6,0,1.1-0.1,1.1-0.2
			l-6.3-2.9C495.7,155.3,495.2,155.2,494.5,155.2z"/>
		<g>
			<path class="st16" d="M445.7,90.3l5.2-0.7c-0.6-6.8-9.6-1.8-9.6-1.8l-0.3,2.4l1,7.2l0.7-1.8L445.7,90.3z"/>
			<path class="st17" d="M493.1,157.9l-42.2,0.5c-0.7,0-1.3,0-1.3,0l-7.2-1.4c0,0,0.6,0,1.3,0h47.2c0.7,0,1.3,0,1.3,0l2.1,0.9
				C494.3,157.8,493.8,157.9,493.1,157.9z"/>
			<polygon class="st18" points="451.7,155.5 451.4,155.3 445.8,148.2 445.8,148 448.1,146.2 455.5,148.6 456.4,151.7 457,152.3 			
				"/>
			<polygon class="st19" points="460.2,127.9 454.3,132 449.7,107.9 459.6,106.8 459.1,115.4 462.3,117.9 			"/>
			<path class="st20" d="M459,122.5l-2.7-3l-2.7-8.9l5.9,1.3l-0.3,7.1C459.2,120.6,459.5,124,459,122.5z"/>
			<path class="st19" d="M447,93.7l0.9,13.7c0,0,7.5,5.9,9.9,5.9c2.3-0.1,5-9.2,5-10.4c0-2.1,0.5-10,0.5-10l-0.3-2.3
				C463,90.5,449.8,91.3,447,93.7L447,93.7z"/>
			<path class="st21" d="M460.9,114.5l11.7,1.7c0.8,0.1,1.5,0.6,1.9,1.2l9.3,14.7c0.6,1,0.6,2.2-0.2,3.1l-7.9,9.8
				c-0.5,0.7-1.3,1-2.2,1l-22.2-0.8c-0.3,0,0.3-0.5,0-0.4l-4.4,4.6c-0.9,0.3-4.4-1.7-5.1-2.4l-8.4-4c-1.2-1-2.3-3.8-1.2-4.9l8-21.1
				c0.4-0.4,0.9-0.7,1.5-0.8l6.1-1.9c1-0.2,2.1-1.4,1.7-0.1l8.8,10.2c1,1.5,0-4.7,1.2-6.2l1-4.1"/>
			<path class="st16" d="M445.3,132.1l-1.9-8.6l-4.2,14.5l12.1,8.6l-0.1-2.7l1.2-4.4l-5.8-1.7C445.9,137.2,445.5,133,445.3,132.1z"
				/>
			<g>
				<path class="st22" d="M451.9,117.6"/>
			</g>
			<path class="st23" d="M468.1,124.9"/>
			<path class="st24" d="M448.8,113.8l-3.9-14.2l0.7-8c0,0,5.4-7.1,15.2-3.4c3.8,1.4,2.7,8.8,2.5,8.3c-1.3-2.4-9.2-4.2-9.2-4.2
				l-5.2,11.2L448.8,113.8z"/>
			<path class="st15" d="M451,158.3h42.8c0.7,0,1.2-0.5,1.2-1.2l3.3-29.1c0-0.7-0.5-1.2-1.2-1.2H453c-0.7,0-1.2,0.5-1.2,1.2l-2,29.1
				C449.8,157.7,450.4,158.3,451,158.3z"/>
			<circle class="st25" cx="461.4" cy="101.3" r="0.5"/>
			<circle class="st25" cx="455.2" cy="101.3" r="0.5"/>
			<line class="st25" x1="462.9" y1="100.4" x2="460.2" y2="100.2"/>
			<line class="st25" x1="456.8" y1="100.1" x2="453.6" y2="100.5"/>
			<ellipse class="st26" cx="475" cy="142.6" rx="3.9" ry="3.2"/>
		</g>
		<ellipse class="st19" cx="384" cy="104" rx="1.3" ry="3.4"/>
		<ellipse class="st19" cx="408" cy="103.5" rx="1.3" ry="3.4"/>
		<g>
			<path class="st16" d="M300.5,163.4l45.9,0.7c0.8,0,1.4,0,1.4-0.1l7.8-2.1c0,0-0.6-0.1-1.4-0.1h-51.4c-0.8,0-1.4,0-1.4,0.1
				l-2.3,1.4C299.2,163.4,299.8,163.4,300.5,163.4z"/>
			<polygon class="st18" points="347.1,158.4 347.4,158.2 353.5,150.4 353.6,150.2 351,148.3 343,150.8 342,154.3 341.3,155 			"/>
			<polygon class="st19" points="330.5,130.6 337.7,135 343.3,108.8 331.2,107.6 331.8,117 327.9,119.7 			"/>
			<polygon class="st20" points="338,134.9 343.2,119.1 343.5,107.6 334,112.4 			"/>
			<path class="st19" d="M346.2,93.4l-2.8,14.6c0,0-6.8,5.8-9.4,5.8c-2.6-0.1-3.8-4.9-4.3-6.1c-0.5-1.2-1.1-15.2-1.1-15.2l0.4-2.5
				C328.9,89.9,343.2,90.7,346.2,93.4L346.2,93.4z"/>
			<path class="st21" d="M331.2,116l-12.7,1.9c-0.9,0.1-1.6,0.6-2.1,1.3l-10.2,15.9c-0.7,1.1-0.6,2.4,0.2,3.4l8.6,10.6
				c0.6,0.7,1.5,1.1,2.4,1.1l24.2-0.8c0.3,0,9.4-0.9,9.7-0.8l1.3,4.5c1,0.3,1.1-0.8,1.9-1.4l11.7-5.1c1.3-1.1,1.3-3,0.2-4.2
				l-11-24.4c-0.4-0.5-1-0.8-1.7-0.9l-8-1.2c-1.1-0.2-2.2-1.5-1.9-0.1l-5.2,5.1c-1.1,1.7-4.4,0.9-5.7-0.7l-1.1-4.4"/>
			<g>
				<path class="st22" d="M340.9,119.4"/>
			</g>
			<path class="st23" d="M323.3,127.3"/>
			<path class="st24" d="M343.4,103.1l2.5-1.4l0.2-11.9c0,0-7.5-5.1-18.7-2.9c-1.3,0.2,0.1,5.3,0.4,5.8s14,0.6,14,0.6l0.2,3.4
				L343.4,103.1z"/>
			<path class="st16" d="M346.2,96.4l-10.4-8.7c7.1-0.7,10.6,2.5,10.6,2.5l0.3,2.6l-1.1,7.8l0.2-6.4L346.2,96.4z"/>
			<path class="st15" d="M346.3,163.5h-48c-0.7,0-1.3-0.6-1.3-1.3l-5.5-31.7c0-0.7,0.6-1.3,1.3-1.3h48c0.7,0,1.3,0.6,1.3,1.3
				l5.5,31.7C347.6,162.9,347,163.5,346.3,163.5z"/>
			<circle class="st25" cx="330.4" cy="101.2" r="0.5"/>
			<circle class="st25" cx="337.2" cy="101.2" r="0.5"/>
			<line class="st25" x1="329" y1="100" x2="331.1" y2="100.1"/>
			<line class="st25" x1="336.2" y1="100.4" x2="338.9" y2="100"/>
			<ellipse class="st19" cx="344.8" cy="102.3" rx="1.3" ry="3.4"/>
		</g>
		<polygon class="st19" points="386.7,142.2 396.8,148.3 404.8,111.3 387.7,109.7 388.6,122.9 383.1,126.7 		"/>
		<polygon class="st20" points="397,149.2 404.3,126.9 406.9,108.2 398.6,115.2 		"/>
		<path class="st19" d="M408.6,89.7l-1.4,21.1c0,0-8.2,9-11.8,8.9c-3.6-0.1-9.5-8.1-10.2-9.8c-0.8-1.7-1.6-21.5-1.6-21.5l0.5-3.5
			C384.1,84.8,404.3,86,408.6,89.7L408.6,89.7z"/>
		<path class="st27" d="M387.7,121.6l-17.9,2.6c-1.2,0.2-2.3,0.8-2.9,1.9l-14.4,22.5c-1,1.5-0.8,3.4,0.3,4.8l12.1,15
			c0.8,1,2.1,1.6,3.4,1.5l34.2-1.2c0.4,0,0.9,0,1.3,0.2l12.9,3.9c1.4,0.4,2.9,0.1,3.9-0.9l22.2-19.6c1.8-1.6,1.9-4.3,0.2-6l-21.2-22
			c-0.6-0.7-1.5-1.1-2.4-1.2l-11.3-1.7c-1.6-0.2-2.2-0.3-2,0.3l-2.6,5.6c-1.5,2.4-11.6,2.4-13.4,0.2L387.7,121.6z"/>
		<polygon class="st28" points="416,142.8 417.2,138.6 429.4,152.6 418.2,147.3 413.9,144.8 417.2,144.7 		"/>
		<g>
			<path class="st22" d="M401.5,126.3"/>
		</g>
		<path class="st23" d="M377.7,141.5"/>
		<path class="st24" d="M408.3,99.9l1.5-12l-1.1-2.9c0,0-12-11-24.8-0.9c-1.4,1.1-0.4,12.8,0.1,13.5c0.5,0.7-0.1-6.8-0.1-6.8
			l22.2-4.4L408.3,99.9z"/>
		<path class="st16" d="M408.9,93.9l-14.7-12.3c10.1-1,13.1,0.4,13.1,0.4l2,6.6l-1.1,11.2l0.2-9L408.9,93.9z"/>
		<path class="st15" d="M427.3,184h-58.4c-0.9,0-1.6-0.7-1.6-1.6l-5.7-38.3c0-0.9,0.7-1.6,1.6-1.6l70.2-0.6c0.9,0,1.6,0.7,1.6,1.6
			l-6,38.9C428.9,183.3,428.2,184,427.3,184z"/>
		<path class="st29" d="M392.7,103.6h-6.4c-0.9,0-1.6-0.7-1.6-1.6v-2.7c0-0.9,0.7-1.6,1.6-1.6h6.4c0.9,0,1.6,0.7,1.6,1.6v2.7
			C394.3,102.9,393.6,103.6,392.7,103.6z"/>
		<path class="st29" d="M405.7,104h-6.4c-0.9,0-1.6-0.7-1.6-1.6v-2.7c0-0.9,0.7-1.6,1.6-1.6h6.4c0.9,0,1.6,0.7,1.6,1.6v2.7
			C407.3,103.3,406.5,104,405.7,104z"/>
		<ellipse class="st26" cx="397.7" cy="164.1" rx="5" ry="4.2"/>
		<ellipse class="st26" cx="318.2" cy="147.8" rx="5" ry="4.2"/>
	</g>
	<g>
		<path class="st15" d="M518.1,221.6l-5.5,3.8c-0.2,0.1-0.3,0.3-0.4,0.6c-0.1,0.3-0.1,0.5,0,0.7l2.5,5.1c-0.7,0.9-1.2,1.8-1.6,2.5
			c-1.2,0-3-0.1-5.3-0.3c-0.3,0-0.6,0-0.8,0.2c-0.2,0.1-0.4,0.4-0.4,0.6c-0.3,0.9-0.6,2.3-1,4.3c-0.3,2-0.4,3.2-0.1,3.5
			c0.1,0.2,0.4,0.4,0.7,0.5l5,1.6c0.1,1,0.3,2,0.6,2.9c-2.1,1.8-3.4,3.1-4.1,3.9c-0.4,0.4-0.4,0.9-0.1,1.4l3.8,5.5
			c0.2,0.2,0.4,0.4,0.6,0.5c0.3,0.1,0.5,0,0.7-0.1l5-2.5c0.8,0.6,1.6,1.2,2.5,1.6l-0.2,5.3c0,0.3,0,0.5,0.2,0.8
			c0.2,0.2,0.4,0.4,0.7,0.4c3.3,0.8,5.7,1.2,7,1.2c0.2,0,0.5-0.1,0.7-0.2c0.2-0.1,0.3-0.3,0.4-0.6c0.2-0.5,0.4-1.3,0.8-2.4
			c0.3-1.1,0.6-2,0.8-2.5c1.1-0.1,2.2-0.4,3.2-0.7l3.8,4.1c0.2,0.2,0.4,0.3,0.7,0.3c0.3,0,0.5-0.1,0.7-0.2l5.5-3.8
			c0.2-0.1,0.3-0.3,0.4-0.6c0.1-0.3,0.1-0.5,0-0.7l-2.5-5.1c0.6-0.8,1.1-1.6,1.6-2.5c1.4,0,3.2,0.1,5.3,0.3c0.3,0,0.6,0,0.8-0.2
			c0.2-0.1,0.3-0.3,0.4-0.6c0.3-0.8,0.6-2.3,1-4.3c0.3-2,0.4-3.2,0.1-3.6c-0.1-0.2-0.4-0.4-0.7-0.5l-5-1.6c-0.1-1-0.3-2-0.6-2.9
			c2.1-1.8,3.4-3.1,4.1-3.9c0.4-0.4,0.4-0.9,0.1-1.4l-3.8-5.5c-0.2-0.2-0.4-0.4-0.6-0.5c-0.3-0.1-0.5,0-0.7,0.1l-5,2.5
			c-0.8-0.6-1.6-1.2-2.5-1.6l0.2-5.4c0-0.3,0-0.5-0.2-0.7c-0.1-0.2-0.4-0.4-0.7-0.4c-3.4-0.8-5.8-1.2-7-1.2c-0.2,0-0.4,0-0.7,0.2
			c-0.2,0.1-0.3,0.3-0.4,0.6c-0.2,0.5-0.4,1.3-0.8,2.4c-0.3,1.1-0.6,2-0.8,2.5c-1.1,0.1-2.2,0.4-3.1,0.7l-3.8-4
			c-0.2-0.2-0.4-0.3-0.7-0.3C518.6,221.4,518.3,221.4,518.1,221.6z M524.2,236.1c1.7-1.2,3.7-1.6,5.8-1.3c2.1,0.4,3.8,1.4,5,3.2
			c1.2,1.7,1.6,3.7,1.3,5.8c-0.4,2.1-1.4,3.8-3.2,5c-1.7,1.2-3.7,1.6-5.8,1.3c-2.1-0.4-3.8-1.4-5-3.2c-1.2-1.7-1.6-3.7-1.3-5.8
			C521.4,239,522.5,237.3,524.2,236.1z"/>
	</g>
</g>
<g>
	<path class="st26" d="M182.1,443.8h51.5c25.5,0.1,38.2,9.6,38.2,28.6c0,6.2-1.8,11.4-5.5,15.7c-3.6,4.3-9,7-16,8v0.2
		c7.9,1.1,13.9,3.8,18,8.3c4.1,4.4,6.2,10,6.2,16.6c0,9.2-3.3,16.3-9.8,21.2c-6.5,4.9-16.1,7.4-28.7,7.4h-53.9V443.8z M228.7,487.1
		c9.9,0,14.9-3.9,14.9-11.6c0-7.7-5-11.6-14.9-11.6h-19.9v23.1H228.7z M231.4,530.2c4.9,0,8.6-1,11.2-3c2.5-2,3.8-5,3.8-8.8
		c0-3.7-1.3-6.6-3.8-8.6c-2.5-2-6.2-3-11.2-3h-22.6v23.4H231.4z"/>
	<path class="st26" d="M289.8,532c17.9-11.1,30.8-21,38.7-29.6c8-8.6,12-16.7,12-24.3c0-4.3-1.2-7.7-3.7-10.3
		c-2.5-2.6-6-3.9-10.6-3.9c-5,0-9,1.8-11.8,5.5c-2.8,3.7-4.3,9.1-4.4,16.1l-23.6-7.2c0.2-11.4,4.1-20.3,11.8-26.6
		c7.6-6.3,17.6-9.5,29.8-9.5c8.9,0,16.3,1.6,22.3,4.9c6,3.3,10.4,7.5,13.3,12.6s4.3,10.6,4.3,16.5c0,9.9-3.7,19.1-11.1,27.4
		c-7.4,8.3-18.7,16.8-33.8,25.5v0.2c7.1-0.4,14.2-0.6,21.3-0.6h24.9v21h-79.4V532z"/>
	<path class="st26" d="M387.5,443.8H439c25.5,0.1,38.2,9.6,38.2,28.6c0,6.2-1.8,11.4-5.5,15.7c-3.6,4.3-9,7-16,8v0.2
		c7.9,1.1,13.9,3.8,18,8.3c4.1,4.4,6.2,10,6.2,16.6c0,9.2-3.3,16.3-9.8,21.2c-6.5,4.9-16.1,7.4-28.7,7.4h-53.9V443.8z M434,487.1
		c9.9,0,14.9-3.9,14.9-11.6c0-7.7-5-11.6-14.9-11.6h-19.9v23.1H434z M436.7,530.2c4.9,0,8.6-1,11.1-3c2.5-2,3.8-5,3.8-8.8
		c0-3.7-1.3-6.6-3.8-8.6c-2.5-2-6.2-3-11.1-3h-22.6v23.4H436.7z"/>
</g>
<g>
	<g>
		<rect x="730.4" y="398.9" class="st30" width="45.9" height="152.1"/>
		
			<rect x="690" y="492.5" transform="matrix(6.123234e-17 -1 1 6.123234e-17 255.8047 1241.2334)" class="st26" width="117" height="0.5"/>
		<rect x="737.1" y="395.3" class="st30" width="31.8" height="2.9"/>
		
			<rect x="696.2" y="486.9" transform="matrix(6.123234e-17 -1 1 6.123234e-17 273.1755 1247.4312)" class="st26" width="128.2" height="0.5"/>
		
			<rect x="700.7" y="480" transform="matrix(6.123234e-17 -1 1 6.123234e-17 291.4536 1252.0482)" class="st26" width="142" height="0.5"/>
		<rect x="740.9" y="391.6" class="st30" width="24.2" height="2.9"/>
		<rect x="743.1" y="387.9" class="st30" width="19.7" height="2.9"/>
		<rect x="752.4" y="361.3" class="st30" width="1.3" height="26.6"/>
		<g>
			<rect x="778.7" y="547.3" class="st31" width="0.2" height="3.3"/>
			<rect x="772.9" y="544.9" class="st31" width="0.3" height="5.8"/>
			
				<rect x="771.9" y="542.7" transform="matrix(0.9438 -0.3305 0.3305 0.9438 -136.9297 285.7787)" class="st31" width="0.3" height="5.8"/>
			
				<rect x="774.1" y="542" transform="matrix(0.9113 0.4116 -0.4116 0.9113 292.9322 -270.4017)" class="st31" width="0.3" height="5.8"/>
			
				<rect x="778.9" y="544.8" transform="matrix(0.9933 0.1155 -0.1155 0.9933 68.4676 -86.3065)" class="st31" width="0.3" height="5.8"/>
			<ellipse class="st32" cx="772.9" cy="539" rx="3.8" ry="6.7"/>
			<ellipse class="st32" cx="778.9" cy="543.5" rx="2.2" ry="3.8"/>
			<ellipse class="st32" cx="777.4" cy="544.8" rx="2.2" ry="2.4"/>
			<ellipse class="st32" cx="780.1" cy="543.5" rx="2.2" ry="2.4"/>
			<ellipse class="st32" cx="770.3" cy="539" rx="2.2" ry="2.4"/>
			<ellipse class="st32" cx="774.8" cy="535.3" rx="2.2" ry="2.4"/>
			<ellipse class="st32" cx="770.2" cy="536.9" rx="2.2" ry="2.4"/>
			
				<ellipse transform="matrix(0.3972 -0.9178 0.9178 0.3972 -26.7995 1035.8982)" class="st32" cx="775.1" cy="538.3" rx="2.5" ry="2.2"/>
		</g>
		<g>
			<rect x="786.8" y="548.9" class="st31" width="0.1" height="2"/>
			<rect x="783.4" y="547.5" class="st31" width="0.2" height="3.5"/>
			
				<rect x="782.7" y="546.1" transform="matrix(0.9438 -0.3305 0.3305 0.9438 -137.0772 289.4768)" class="st31" width="0.2" height="3.5"/>
			
				<rect x="784.1" y="545.7" transform="matrix(0.9113 0.4116 -0.4116 0.9113 294.8723 -274.2576)" class="st31" width="0.2" height="3.5"/>
			
				<rect x="787" y="547.4" transform="matrix(0.9933 0.1155 -0.1155 0.9933 68.6869 -87.2199)" class="st31" width="0.2" height="3.5"/>
			<ellipse class="st32" cx="783.3" cy="543.9" rx="2.3" ry="4"/>
			<ellipse class="st32" cx="787" cy="546.6" rx="1.3" ry="2.3"/>
			<ellipse class="st32" cx="786" cy="547.4" rx="1.3" ry="1.5"/>
			<ellipse class="st32" cx="787.7" cy="546.6" rx="1.3" ry="1.5"/>
			<ellipse class="st32" cx="781.8" cy="543.9" rx="1.3" ry="1.5"/>
			<ellipse class="st32" cx="784.5" cy="541.7" rx="1.3" ry="1.5"/>
			<ellipse class="st32" cx="781.7" cy="542.7" rx="1.3" ry="1.5"/>
			
				<ellipse transform="matrix(0.3972 -0.9178 0.9178 0.3972 -25.7798 1047.8004)" class="st32" cx="784.7" cy="543.5" rx="1.5" ry="1.4"/>
		</g>
		<polygon class="st33" points="730.9,550.7 776.4,550.5 742.7,452.5 738.4,448.4 718.7,451.5 		"/>
		<rect x="714.8" y="452.7" class="st30" width="28.2" height="98.3"/>
		<rect x="718.7" y="448.5" class="st30" width="19.7" height="2.9"/>
		
			<rect x="716" y="466" transform="matrix(-1 -1.224647e-16 1.224647e-16 -1 1458.7395 932.4544)" class="st26" width="26.8" height="0.5"/>
		
			<rect x="716" y="474" transform="matrix(-1 -1.224647e-16 1.224647e-16 -1 1458.7395 948.5876)" class="st26" width="26.8" height="0.5"/>
		
			<rect x="716" y="482.1" transform="matrix(-1 -1.224647e-16 1.224647e-16 -1 1458.7395 964.7209)" class="st26" width="26.8" height="0.5"/>
		
			<rect x="716" y="490.2" transform="matrix(-1 -1.224647e-16 1.224647e-16 -1 1458.7395 980.8541)" class="st26" width="26.8" height="0.5"/>
		
			<rect x="716" y="498.2" transform="matrix(-1 -1.224647e-16 1.224647e-16 -1 1458.7395 996.9874)" class="st26" width="26.8" height="0.5"/>
		
			<rect x="716" y="506.3" transform="matrix(-1 -1.224647e-16 1.224647e-16 -1 1458.7395 1013.1206)" class="st26" width="26.8" height="0.5"/>
		
			<rect x="716" y="514.4" transform="matrix(-1 -1.224647e-16 1.224647e-16 -1 1458.7395 1029.2538)" class="st26" width="26.8" height="0.5"/>
		
			<rect x="716" y="522.4" transform="matrix(-1 -1.224647e-16 1.224647e-16 -1 1458.7395 1045.3871)" class="st26" width="26.8" height="0.5"/>
		
			<rect x="716" y="530.5" transform="matrix(-1 -1.224647e-16 1.224647e-16 -1 1458.7395 1061.5203)" class="st26" width="26.8" height="0.5"/>
		
			<rect x="716" y="538.6" transform="matrix(-1 -1.224647e-16 1.224647e-16 -1 1458.7395 1077.6536)" class="st26" width="26.8" height="0.5"/>
		<polygon class="st33" points="712.9,550.8 723.1,550.8 717.8,536.7 715.7,535.1 713.1,534.2 		"/>
		<g>
			<rect x="706.2" y="544.9" class="st34" width="0.6" height="5.8"/>
			
				<rect x="712.6" y="544.9" transform="matrix(-1 -2.273172e-11 2.273172e-11 -1 1425.7139 1095.6793)" class="st34" width="0.5" height="5.8"/>
			
				<rect x="713.7" y="542.7" transform="matrix(-0.9438 -0.3305 0.3305 -0.9438 1207.2014 1296.5266)" class="st34" width="0.3" height="5.8"/>
			
				<rect x="711.5" y="542" transform="matrix(-0.9113 0.4116 -0.4116 -0.9113 1584.4249 748.5814)" class="st34" width="0.3" height="5.8"/>
			<ellipse class="st32" cx="713" cy="539" rx="3.8" ry="6.7"/>
			<ellipse class="st32" cx="705.9" cy="541.5" rx="2.8" ry="4.9"/>
			<ellipse class="st32" cx="707.8" cy="543.1" rx="2.8" ry="3.1"/>
			<ellipse class="st32" cx="704.2" cy="541.4" rx="2.8" ry="3.1"/>
			<ellipse class="st32" cx="715.5" cy="539.1" rx="2.2" ry="2.4"/>
			<ellipse class="st32" cx="711.1" cy="535.4" rx="2.2" ry="2.4"/>
			<ellipse class="st32" cx="715.7" cy="537" rx="2.2" ry="2.4"/>
			
				<ellipse transform="matrix(0.9178 -0.3972 0.3972 0.9178 -155.3697 326.5488)" class="st32" cx="710.7" cy="538.4" rx="2.2" ry="2.5"/>
		</g>
	</g>
	<g>
		<rect x="608.1" y="398.9" class="st30" width="45.9" height="152.1"/>
		
			<rect x="567.7" y="492.5" transform="matrix(6.123234e-17 -1 1 6.123234e-17 133.4871 1118.9159)" class="st26" width="117" height="0.5"/>
		<rect x="614.8" y="395.3" class="st30" width="31.8" height="2.9"/>
		
			<rect x="573.9" y="486.9" transform="matrix(6.123234e-17 -1 1 6.123234e-17 150.8579 1125.1135)" class="st26" width="128.2" height="0.5"/>
		
			<rect x="578.4" y="480" transform="matrix(6.123234e-17 -1 1 6.123234e-17 169.136 1129.7306)" class="st26" width="142" height="0.5"/>
		<rect x="618.6" y="391.6" class="st30" width="24.2" height="2.9"/>
		<rect x="620.8" y="387.9" class="st30" width="19.7" height="2.9"/>
		<rect x="630" y="361.3" class="st30" width="1.3" height="26.6"/>
		<g>
			<rect x="656.3" y="547.3" class="st31" width="0.2" height="3.3"/>
			<rect x="650.6" y="544.9" class="st31" width="0.3" height="5.8"/>
			
				<rect x="649.6" y="542.7" transform="matrix(0.9438 -0.3305 0.3305 0.9438 -143.8018 245.3569)" class="st31" width="0.3" height="5.8"/>
			
				<rect x="651.8" y="542" transform="matrix(0.9113 0.4116 -0.4116 0.9113 282.088 -220.0501)" class="st31" width="0.3" height="5.8"/>
			
				<rect x="656.6" y="544.8" transform="matrix(0.9933 0.1155 -0.1155 0.9933 67.6492 -72.1805)" class="st31" width="0.3" height="5.8"/>
			<ellipse class="st32" cx="650.5" cy="539" rx="3.8" ry="6.7"/>
			<ellipse class="st32" cx="656.6" cy="543.5" rx="2.2" ry="3.8"/>
			<ellipse class="st32" cx="655.1" cy="544.8" rx="2.2" ry="2.4"/>
			<ellipse class="st32" cx="657.8" cy="543.5" rx="2.2" ry="2.4"/>
			<ellipse class="st32" cx="648" cy="539" rx="2.2" ry="2.4"/>
			<ellipse class="st32" cx="652.4" cy="535.3" rx="2.2" ry="2.4"/>
			<ellipse class="st32" cx="647.8" cy="536.9" rx="2.2" ry="2.4"/>
			
				<ellipse transform="matrix(0.3972 -0.9178 0.9178 0.3972 -100.5378 923.6411)" class="st32" cx="652.8" cy="538.3" rx="2.5" ry="2.2"/>
		</g>
		<g>
			<rect x="664.5" y="548.9" class="st31" width="0.1" height="2"/>
			<rect x="661.1" y="547.5" class="st31" width="0.2" height="3.5"/>
			
				<rect x="660.4" y="546.1" transform="matrix(0.9438 -0.3305 0.3305 0.9438 -143.9493 249.055)" class="st31" width="0.2" height="3.5"/>
			
				<rect x="661.7" y="545.7" transform="matrix(0.9113 0.4116 -0.4116 0.9113 284.0282 -223.906)" class="st31" width="0.2" height="3.5"/>
			
				<rect x="664.7" y="547.4" transform="matrix(0.9933 0.1155 -0.1155 0.9933 67.8684 -73.0939)" class="st31" width="0.2" height="3.5"/>
			<ellipse class="st32" cx="661" cy="543.9" rx="2.3" ry="4"/>
			<ellipse class="st32" cx="664.6" cy="546.6" rx="1.3" ry="2.3"/>
			<ellipse class="st32" cx="663.7" cy="547.4" rx="1.3" ry="1.5"/>
			<ellipse class="st32" cx="665.4" cy="546.6" rx="1.3" ry="1.5"/>
			<ellipse class="st32" cx="659.5" cy="543.9" rx="1.3" ry="1.5"/>
			<ellipse class="st32" cx="662.2" cy="541.7" rx="1.3" ry="1.5"/>
			<ellipse class="st32" cx="659.4" cy="542.7" rx="1.3" ry="1.5"/>
			
				<ellipse transform="matrix(0.3972 -0.9178 0.9178 0.3972 -99.5181 935.5433)" class="st32" cx="662.4" cy="543.5" rx="1.5" ry="1.4"/>
		</g>
		<polygon class="st33" points="608.6,550.7 654.1,550.5 620.4,452.5 616.1,448.4 596.4,451.5 		"/>
		<rect x="592.5" y="452.7" class="st30" width="28.2" height="98.3"/>
		<rect x="596.4" y="448.5" class="st30" width="19.7" height="2.9"/>
		
			<rect x="593.7" y="466" transform="matrix(-1 -1.224647e-16 1.224647e-16 -1 1214.1044 932.4544)" class="st26" width="26.8" height="0.5"/>
		
			<rect x="593.7" y="474" transform="matrix(-1 -1.224647e-16 1.224647e-16 -1 1214.1044 948.5876)" class="st26" width="26.8" height="0.5"/>
		
			<rect x="593.7" y="482.1" transform="matrix(-1 -1.224647e-16 1.224647e-16 -1 1214.1044 964.7209)" class="st26" width="26.8" height="0.5"/>
		
			<rect x="593.7" y="490.2" transform="matrix(-1 -1.224647e-16 1.224647e-16 -1 1214.1044 980.8541)" class="st26" width="26.8" height="0.5"/>
		
			<rect x="593.7" y="498.2" transform="matrix(-1 -1.224647e-16 1.224647e-16 -1 1214.1044 996.9874)" class="st26" width="26.8" height="0.5"/>
		
			<rect x="593.7" y="506.3" transform="matrix(-1 -1.224647e-16 1.224647e-16 -1 1214.1044 1013.1206)" class="st26" width="26.8" height="0.5"/>
		
			<rect x="593.7" y="514.4" transform="matrix(-1 -1.224647e-16 1.224647e-16 -1 1214.1044 1029.2538)" class="st26" width="26.8" height="0.5"/>
		
			<rect x="593.7" y="522.4" transform="matrix(-1 -1.224647e-16 1.224647e-16 -1 1214.1044 1045.3871)" class="st26" width="26.8" height="0.5"/>
		
			<rect x="593.7" y="530.5" transform="matrix(-1 -1.224647e-16 1.224647e-16 -1 1214.1044 1061.5203)" class="st26" width="26.8" height="0.5"/>
		
			<rect x="593.7" y="538.6" transform="matrix(-1 -1.224647e-16 1.224647e-16 -1 1214.1044 1077.6536)" class="st26" width="26.8" height="0.5"/>
		<polygon class="st33" points="590.5,550.8 600.8,550.8 595.5,536.7 593.4,535.1 590.7,534.2 		"/>
		<g>
			<rect x="583.9" y="544.9" class="st34" width="0.6" height="5.8"/>
			
				<rect x="590.3" y="544.9" transform="matrix(-1 -2.273172e-11 2.273172e-11 -1 1181.0787 1095.6793)" class="st34" width="0.5" height="5.8"/>
			
				<rect x="591.4" y="542.7" transform="matrix(-0.9438 -0.3305 0.3305 -0.9438 969.4382 1256.1047)" class="st34" width="0.3" height="5.8"/>
			
				<rect x="589.1" y="542" transform="matrix(-0.9113 0.4116 -0.4116 -0.9113 1350.6339 798.9329)" class="st34" width="0.3" height="5.8"/>
			<ellipse class="st32" cx="590.6" cy="539" rx="3.8" ry="6.7"/>
			<ellipse class="st32" cx="583.5" cy="541.5" rx="2.8" ry="4.9"/>
			<ellipse class="st32" cx="585.5" cy="543.1" rx="2.8" ry="3.1"/>
			<ellipse class="st32" cx="581.9" cy="541.4" rx="2.8" ry="3.1"/>
			<ellipse class="st32" cx="593.2" cy="539.1" rx="2.2" ry="2.4"/>
			<ellipse class="st32" cx="588.7" cy="535.4" rx="2.2" ry="2.4"/>
			<ellipse class="st32" cx="593.4" cy="537" rx="2.2" ry="2.4"/>
			
				<ellipse transform="matrix(0.9178 -0.3972 0.3972 0.9178 -165.4303 277.9695)" class="st32" cx="588.4" cy="538.4" rx="2.2" ry="2.5"/>
		</g>
	</g>
	<g>
		<rect x="485.8" y="398.9" class="st30" width="45.9" height="152.1"/>
		
			<rect x="445.4" y="492.5" transform="matrix(6.123234e-17 -1 1 6.123234e-17 11.1695 996.5983)" class="st26" width="117" height="0.5"/>
		<rect x="492.4" y="395.3" class="st30" width="31.8" height="2.9"/>
		
			<rect x="451.6" y="486.9" transform="matrix(6.123234e-17 -1 1 6.123234e-17 28.5403 1002.796)" class="st26" width="128.2" height="0.5"/>
		
			<rect x="456.1" y="480" transform="matrix(6.123234e-17 -1 1 6.123234e-17 46.8184 1007.413)" class="st26" width="142" height="0.5"/>
		<rect x="496.2" y="391.6" class="st30" width="24.2" height="2.9"/>
		<rect x="498.5" y="387.9" class="st30" width="19.7" height="2.9"/>
		<rect x="507.7" y="361.3" class="st30" width="1.3" height="26.6"/>
		<g>
			<rect x="534" y="547.3" class="st31" width="0.2" height="3.3"/>
			<rect x="528.3" y="544.9" class="st31" width="0.3" height="5.8"/>
			
				<rect x="527.2" y="542.7" transform="matrix(0.9438 -0.3305 0.3305 0.9438 -150.6739 204.9351)" class="st31" width="0.3" height="5.8"/>
			
				<rect x="529.5" y="542" transform="matrix(0.9113 0.4116 -0.4116 0.9113 271.2437 -169.6986)" class="st31" width="0.3" height="5.8"/>
			
				<rect x="534.3" y="544.8" transform="matrix(0.9933 0.1155 -0.1155 0.9933 66.8308 -58.0546)" class="st31" width="0.3" height="5.8"/>
			<ellipse class="st32" cx="528.2" cy="539" rx="3.8" ry="6.7"/>
			<ellipse class="st32" cx="534.3" cy="543.5" rx="2.2" ry="3.8"/>
			<ellipse class="st32" cx="532.7" cy="544.8" rx="2.2" ry="2.4"/>
			<ellipse class="st32" cx="535.5" cy="543.5" rx="2.2" ry="2.4"/>
			<ellipse class="st32" cx="525.7" cy="539" rx="2.2" ry="2.4"/>
			<ellipse class="st32" cx="530.1" cy="535.3" rx="2.2" ry="2.4"/>
			<ellipse class="st32" cx="525.5" cy="536.9" rx="2.2" ry="2.4"/>
			
				<ellipse transform="matrix(0.3972 -0.9178 0.9178 0.3972 -174.2761 811.3841)" class="st32" cx="530.5" cy="538.3" rx="2.5" ry="2.2"/>
		</g>
		<g>
			<rect x="542.2" y="548.9" class="st31" width="0.1" height="2"/>
			<rect x="538.7" y="547.5" class="st31" width="0.2" height="3.5"/>
			
				<rect x="538.1" y="546.1" transform="matrix(0.9438 -0.3305 0.3305 0.9438 -150.8213 208.6332)" class="st31" width="0.2" height="3.5"/>
			
				<rect x="539.4" y="545.7" transform="matrix(0.9113 0.4116 -0.4116 0.9113 273.184 -173.5545)" class="st31" width="0.2" height="3.5"/>
			
				<rect x="542.3" y="547.4" transform="matrix(0.9933 0.1155 -0.1155 0.9933 67.05 -58.968)" class="st31" width="0.2" height="3.5"/>
			<ellipse class="st32" cx="538.7" cy="543.9" rx="2.3" ry="4"/>
			<ellipse class="st32" cx="542.3" cy="546.6" rx="1.3" ry="2.3"/>
			<ellipse class="st32" cx="541.4" cy="547.4" rx="1.3" ry="1.5"/>
			<ellipse class="st32" cx="543.1" cy="546.6" rx="1.3" ry="1.5"/>
			<ellipse class="st32" cx="537.2" cy="543.9" rx="1.3" ry="1.5"/>
			<ellipse class="st32" cx="539.8" cy="541.7" rx="1.3" ry="1.5"/>
			<ellipse class="st32" cx="537.1" cy="542.7" rx="1.3" ry="1.5"/>
			
				<ellipse transform="matrix(0.3972 -0.9178 0.9178 0.3972 -173.2564 823.2863)" class="st32" cx="540" cy="543.5" rx="1.5" ry="1.4"/>
		</g>
		<polygon class="st33" points="486.3,550.7 531.8,550.5 498.1,452.5 493.8,448.4 474.1,451.5 		"/>
		<rect x="470.1" y="452.7" class="st30" width="28.2" height="98.3"/>
		<rect x="474.1" y="448.5" class="st30" width="19.7" height="2.9"/>
		
			<rect x="471.3" y="466" transform="matrix(-1 -1.224647e-16 1.224647e-16 -1 969.4692 932.4544)" class="st26" width="26.8" height="0.5"/>
		
			<rect x="471.3" y="474" transform="matrix(-1 -1.224647e-16 1.224647e-16 -1 969.4692 948.5876)" class="st26" width="26.8" height="0.5"/>
		
			<rect x="471.3" y="482.1" transform="matrix(-1 -1.224647e-16 1.224647e-16 -1 969.4692 964.7209)" class="st26" width="26.8" height="0.5"/>
		
			<rect x="471.3" y="490.2" transform="matrix(-1 -1.224647e-16 1.224647e-16 -1 969.4692 980.8541)" class="st26" width="26.8" height="0.5"/>
		
			<rect x="471.3" y="498.2" transform="matrix(-1 -1.224647e-16 1.224647e-16 -1 969.4692 996.9874)" class="st26" width="26.8" height="0.5"/>
		
			<rect x="471.3" y="506.3" transform="matrix(-1 -1.224647e-16 1.224647e-16 -1 969.4692 1013.1206)" class="st26" width="26.8" height="0.5"/>
		
			<rect x="471.3" y="514.4" transform="matrix(-1 -1.224647e-16 1.224647e-16 -1 969.4692 1029.2538)" class="st26" width="26.8" height="0.5"/>
		
			<rect x="471.3" y="522.4" transform="matrix(-1 -1.224647e-16 1.224647e-16 -1 969.4692 1045.3871)" class="st26" width="26.8" height="0.5"/>
		
			<rect x="471.3" y="530.5" transform="matrix(-1 -1.224647e-16 1.224647e-16 -1 969.4692 1061.5203)" class="st26" width="26.8" height="0.5"/>
		
			<rect x="471.3" y="538.6" transform="matrix(-1 -1.224647e-16 1.224647e-16 -1 969.4692 1077.6536)" class="st26" width="26.8" height="0.5"/>
		<polygon class="st33" points="468.2,550.8 478.4,550.8 473.2,536.7 471,535.1 468.4,534.2 		"/>
		<g>
			<rect x="461.6" y="544.9" class="st34" width="0.6" height="5.8"/>
			
				<rect x="468" y="544.9" transform="matrix(-1 -2.273172e-11 2.273172e-11 -1 936.4435 1095.6793)" class="st34" width="0.5" height="5.8"/>
			
				<rect x="469" y="542.7" transform="matrix(-0.9438 -0.3305 0.3305 -0.9438 731.6751 1215.683)" class="st34" width="0.3" height="5.8"/>
			
				<rect x="466.8" y="542" transform="matrix(-0.9113 0.4116 -0.4116 -0.9113 1116.843 849.2845)" class="st34" width="0.3" height="5.8"/>
			<ellipse class="st32" cx="468.3" cy="539" rx="3.8" ry="6.7"/>
			<ellipse class="st32" cx="461.2" cy="541.5" rx="2.8" ry="4.9"/>
			<ellipse class="st32" cx="463.2" cy="543.1" rx="2.8" ry="3.1"/>
			<ellipse class="st32" cx="459.6" cy="541.4" rx="2.8" ry="3.1"/>
			<ellipse class="st32" cx="470.9" cy="539.1" rx="2.2" ry="2.4"/>
			<ellipse class="st32" cx="466.4" cy="535.4" rx="2.2" ry="2.4"/>
			<ellipse class="st32" cx="471" cy="537" rx="2.2" ry="2.4"/>
			
				<ellipse transform="matrix(0.9178 -0.3972 0.3972 0.9178 -175.4908 229.3903)" class="st32" cx="466.1" cy="538.4" rx="2.2" ry="2.5"/>
		</g>
	</g>
	<g>
		<g>
			<line class="st35" x1="646.4" y1="290.3" x2="652.4" y2="290.3"/>
			<line class="st36" x1="666" y1="290.3" x2="740.6" y2="290.3"/>
			<line class="st35" x1="747.4" y1="290.3" x2="753.4" y2="290.3"/>
		</g>
	</g>
	<g>
		<g>
			<line class="st35" x1="508" y1="291.8" x2="514" y2="291.8"/>
			<line class="st36" x1="527.5" y1="291.8" x2="602.2" y2="291.8"/>
			<line class="st35" x1="609" y1="291.8" x2="615" y2="291.8"/>
		</g>
	</g>
	<g>
		<path class="st35" d="M543.2,274.1c-0.1-0.1-0.2-0.2-0.4-0.3l-3.7-0.6c-0.2-0.6-0.5-1.3-0.8-2c0.2-0.3,0.6-0.8,1.1-1.4
			c0.5-0.6,0.8-1.1,1-1.3c0.1-0.1,0.2-0.3,0.2-0.5c0-0.2,0-0.3-0.1-0.4c-0.5-0.7-1.6-1.8-3.3-3.4c-0.2-0.1-0.3-0.2-0.5-0.2
			c-0.2,0-0.4,0.1-0.5,0.2l-2.9,2.1c-0.5-0.3-1.2-0.5-1.8-0.7l-0.6-3.7c0-0.2-0.1-0.3-0.2-0.4c-0.1-0.1-0.3-0.2-0.5-0.2h-4.5
			c-0.4,0-0.6,0.2-0.7,0.6c-0.2,0.7-0.4,1.9-0.6,3.7c-0.6,0.2-1.2,0.5-1.8,0.8l-2.8-2.1c-0.2-0.1-0.3-0.2-0.5-0.2
			c-0.3,0-0.9,0.5-1.9,1.4c-1,1-1.6,1.7-2,2.2c-0.1,0.2-0.2,0.3-0.2,0.5c0,0.2,0.1,0.3,0.2,0.5c0.9,1.1,1.6,2,2.1,2.8
			c-0.3,0.6-0.6,1.2-0.8,1.8l-3.7,0.6c-0.1,0-0.3,0.1-0.4,0.3c-0.1,0.1-0.2,0.3-0.2,0.5v4.5c0,0.2,0.1,0.3,0.2,0.5
			c0.1,0.1,0.2,0.2,0.4,0.3l3.7,0.5c0.2,0.7,0.5,1.3,0.8,2c-0.2,0.3-0.6,0.8-1.1,1.4c-0.5,0.6-0.8,1.1-1,1.3
			c-0.1,0.1-0.2,0.3-0.2,0.5c0,0.2,0,0.3,0.1,0.5c0.5,0.7,1.6,1.8,3.3,3.4c0.1,0.1,0.3,0.2,0.5,0.2c0.2,0,0.4-0.1,0.5-0.2l2.8-2.1
			c0.5,0.3,1.2,0.5,1.8,0.7l0.6,3.7c0,0.2,0.1,0.3,0.2,0.4c0.1,0.1,0.3,0.2,0.5,0.2h4.5c0.4,0,0.6-0.2,0.7-0.6
			c0.2-0.7,0.4-1.9,0.6-3.7c0.6-0.2,1.2-0.5,1.8-0.8l2.8,2.2c0.2,0.1,0.4,0.2,0.5,0.2c0.3,0,0.9-0.5,1.9-1.4c1-1,1.6-1.7,2-2.2
			c0.1-0.1,0.2-0.3,0.2-0.5c0-0.2-0.1-0.3-0.2-0.5c-1-1.2-1.7-2.1-2.1-2.8c0.3-0.5,0.5-1.1,0.8-1.8l3.7-0.6c0.2,0,0.3-0.1,0.4-0.3
			c0.1-0.1,0.2-0.3,0.2-0.5v-4.5C543.3,274.4,543.3,274.2,543.2,274.1z M531.5,280.4c-1,1-2.2,1.5-3.6,1.5c-1.4,0-2.6-0.5-3.6-1.5
			c-1-1-1.5-2.2-1.5-3.6c0-1.4,0.5-2.6,1.5-3.6c1-1,2.2-1.5,3.6-1.5c1.4,0,2.6,0.5,3.6,1.5c1,1,1.5,2.2,1.5,3.6
			C533.1,278.1,532.5,279.4,531.5,280.4z"/>
	</g>
	<g>
		<path class="st23" d="M508.1,338.8c0-0.1-0.1-0.1-0.2-0.1l-1.6-0.2c-0.1-0.3-0.2-0.6-0.4-0.8c0.1-0.1,0.3-0.3,0.5-0.6
			c0.2-0.3,0.4-0.5,0.4-0.6c0-0.1,0.1-0.1,0.1-0.2c0-0.1,0-0.1-0.1-0.2c-0.2-0.3-0.7-0.8-1.4-1.5c-0.1-0.1-0.1-0.1-0.2-0.1
			c-0.1,0-0.2,0-0.2,0.1l-1.2,0.9c-0.2-0.1-0.5-0.2-0.8-0.3l-0.2-1.6c0-0.1,0-0.1-0.1-0.2c-0.1,0-0.1-0.1-0.2-0.1h-1.9
			c-0.2,0-0.3,0.1-0.3,0.2c-0.1,0.3-0.2,0.8-0.3,1.6c-0.3,0.1-0.5,0.2-0.8,0.3l-1.2-0.9c-0.1-0.1-0.1-0.1-0.2-0.1
			c-0.1,0-0.4,0.2-0.8,0.6c-0.4,0.4-0.7,0.7-0.9,0.9c-0.1,0.1-0.1,0.1-0.1,0.2c0,0.1,0,0.1,0.1,0.2c0.4,0.5,0.7,0.9,0.9,1.2
			c-0.1,0.3-0.3,0.5-0.3,0.8l-1.6,0.2c-0.1,0-0.1,0-0.2,0.1c0,0.1-0.1,0.1-0.1,0.2v1.9c0,0.1,0,0.1,0.1,0.2c0,0.1,0.1,0.1,0.2,0.1
			l1.6,0.2c0.1,0.3,0.2,0.6,0.4,0.9c-0.1,0.1-0.3,0.3-0.5,0.6c-0.2,0.3-0.4,0.5-0.4,0.6c0,0.1-0.1,0.1-0.1,0.2c0,0.1,0,0.1,0.1,0.2
			c0.2,0.3,0.7,0.8,1.4,1.5c0.1,0.1,0.1,0.1,0.2,0.1c0.1,0,0.2,0,0.2-0.1l1.2-0.9c0.2,0.1,0.5,0.2,0.8,0.3l0.2,1.6
			c0,0.1,0,0.1,0.1,0.2c0.1,0,0.1,0.1,0.2,0.1h1.9c0.2,0,0.3-0.1,0.3-0.2c0.1-0.3,0.2-0.8,0.3-1.6c0.3-0.1,0.5-0.2,0.8-0.3l1.2,0.9
			c0.1,0.1,0.2,0.1,0.2,0.1c0.1,0,0.4-0.2,0.8-0.6c0.4-0.4,0.7-0.7,0.9-0.9c0.1-0.1,0.1-0.1,0.1-0.2c0-0.1,0-0.1-0.1-0.2
			c-0.4-0.5-0.7-0.9-0.9-1.2c0.1-0.2,0.2-0.5,0.3-0.8l1.6-0.2c0.1,0,0.1,0,0.2-0.1c0-0.1,0.1-0.1,0.1-0.2V339
			C508.2,338.9,508.2,338.8,508.1,338.8z M503.1,341.5c-0.4,0.4-1,0.6-1.6,0.6c-0.6,0-1.1-0.2-1.6-0.6c-0.4-0.4-0.6-1-0.6-1.6
			c0-0.6,0.2-1.1,0.6-1.6c0.4-0.4,1-0.6,1.6-0.6c0.6,0,1.1,0.2,1.6,0.6c0.4,0.4,0.6,1,0.6,1.6C503.8,340.5,503.6,341.1,503.1,341.5z
			"/>
	</g>
	<g>
		<path class="st23" d="M735.7,279.8l-1.4,1c-0.1,0-0.1,0.1-0.1,0.2c0,0.1,0,0.1,0,0.2l0.6,1.3c-0.2,0.2-0.3,0.4-0.4,0.6
			c-0.3,0-0.8,0-1.3-0.1c-0.1,0-0.1,0-0.2,0c-0.1,0-0.1,0.1-0.1,0.2c-0.1,0.2-0.2,0.6-0.2,1.1c-0.1,0.5-0.1,0.8,0,0.9
			c0,0,0.1,0.1,0.2,0.1l1.3,0.4c0,0.3,0.1,0.5,0.2,0.7c-0.5,0.5-0.9,0.8-1,1c-0.1,0.1-0.1,0.2,0,0.3l1,1.4c0,0.1,0.1,0.1,0.2,0.1
			c0.1,0,0.1,0,0.2,0l1.3-0.6c0.2,0.2,0.4,0.3,0.6,0.4l-0.1,1.3c0,0.1,0,0.1,0.1,0.2c0,0.1,0.1,0.1,0.2,0.1c0.8,0.2,1.4,0.3,1.8,0.3
			c0.1,0,0.1,0,0.2-0.1c0.1,0,0.1-0.1,0.1-0.2c0-0.1,0.1-0.3,0.2-0.6c0.1-0.3,0.2-0.5,0.2-0.6c0.3,0,0.6-0.1,0.8-0.2l1,1
			c0,0,0.1,0.1,0.2,0.1s0.1,0,0.2-0.1l1.4-1c0,0,0.1-0.1,0.1-0.2c0-0.1,0-0.1,0-0.2l-0.6-1.3c0.2-0.2,0.3-0.4,0.4-0.6
			c0.4,0,0.8,0,1.3,0.1c0.1,0,0.1,0,0.2,0c0,0,0.1-0.1,0.1-0.2c0.1-0.2,0.2-0.6,0.2-1.1c0.1-0.5,0.1-0.8,0-0.9
			c0-0.1-0.1-0.1-0.2-0.1l-1.3-0.4c0-0.3-0.1-0.5-0.2-0.7c0.5-0.5,0.9-0.8,1-1c0.1-0.1,0.1-0.2,0-0.3l-1-1.4c0-0.1-0.1-0.1-0.2-0.1
			c-0.1,0-0.1,0-0.2,0l-1.3,0.6c-0.2-0.2-0.4-0.3-0.6-0.4l0.1-1.4c0-0.1,0-0.1,0-0.2c0-0.1-0.1-0.1-0.2-0.1
			c-0.9-0.2-1.5-0.3-1.8-0.3c-0.1,0-0.1,0-0.2,0.1c-0.1,0-0.1,0.1-0.1,0.1c0,0.1-0.1,0.3-0.2,0.6c-0.1,0.3-0.2,0.5-0.2,0.6
			c-0.3,0-0.5,0.1-0.8,0.2l-1-1c0,0-0.1-0.1-0.2-0.1C735.8,279.7,735.7,279.7,735.7,279.8z M737.2,283.5c0.4-0.3,0.9-0.4,1.5-0.3
			c0.5,0.1,0.9,0.4,1.3,0.8c0.3,0.4,0.4,0.9,0.3,1.5c-0.1,0.5-0.4,0.9-0.8,1.3c-0.4,0.3-0.9,0.4-1.5,0.3c-0.5-0.1-0.9-0.4-1.3-0.8
			c-0.3-0.4-0.4-0.9-0.3-1.5C736.5,284.2,736.8,283.8,737.2,283.5z"/>
	</g>
	<g>
		<g>
			<line class="st35" x1="508.2" y1="384.7" x2="508.2" y2="378.7"/>
			<line class="st37" x1="508.2" y1="367.9" x2="508.2" y2="308.1"/>
			<line class="st35" x1="508.2" y1="302.7" x2="508.2" y2="296.7"/>
		</g>
	</g>
	<g>
		<g>
			<line class="st35" x1="752.9" y1="380.4" x2="752.9" y2="374.4"/>
			<line class="st38" x1="752.9" y1="363.9" x2="753" y2="306.5"/>
			<line class="st35" x1="753" y1="301.2" x2="753" y2="295.2"/>
		</g>
	</g>
	<g>
		<g>
			<line class="st35" x1="630.6" y1="386.1" x2="630.6" y2="380.1"/>
			<line class="st39" x1="630.6" y1="368.2" x2="630.6" y2="302.6"/>
			<line class="st35" x1="630.6" y1="296.7" x2="630.6" y2="290.7"/>
		</g>
	</g>
</g>
</svg>
