<?xml version="1.0" encoding="utf-8"?>
<!-- Generator: Adobe Illustrator 20.1.0, SVG Export Plug-In . SVG Version: 6.00 Build 0)  -->
<svg version="1.1" id="Layer_1" xmlns="http://www.w3.org/2000/svg" xmlns:xlink="http://www.w3.org/1999/xlink" x="0px" y="0px"
	 viewBox="0 0 129.8 18.2" style="enable-background:new 0 0 129.8 18.2;" xml:space="preserve">
<style type="text/css">
	.st0{fill:#3E63AB;}
	.st1{fill-rule:evenodd;clip-rule:evenodd;fill:#3E63AB;}
	.st2{fill:#E54047;}
	.st3{fill:#F18F2A;}
</style>
<g>
	<path class="st0" d="M83.9,0.8H72.7V15h11.1c2.4,0,4-0.5,4.9-1.6c0.9-1,1.3-2.8,1.3-5.5c0-2.8-0.4-4.6-1.3-5.6
		C87.8,1.3,86.2,0.8,83.9,0.8z M87.2,7.3v1.3c0,2.1-0.4,2.9-0.7,3.2c-0.5,0.5-1.3,0.7-2.5,0.7h-8.6V3.2h8.9c1.1,0,1.8,0.3,2.2,0.8
		C86.8,4.2,87.2,5,87.2,7.3z"/>
	<path class="st0" d="M101.9,5.2L101.9,5.2c-0.9-0.5-2.2-0.7-3.9-0.7h-2.5c-1.5,0-2.6,0.2-3.2,0.6c-0.7,0.4-1.1,1.2-1.1,2.2v1
		l2.5-0.5V7.5c0-0.3,0.1-0.4,0.3-0.6c0.1-0.1,0.4-0.2,1.6-0.2h2.3c1.5,0,2.2,0.2,2.5,0.3c0.3,0.1,0.5,0.5,0.5,1.1l0,0.7
		c-0.2-0.1-0.3-0.2-0.5-0.2c-0.5-0.2-1.2-0.2-2.4-0.2h-2.5c-1.6,0-2.7,0.2-3.4,0.5c-0.6,0.2-1.3,0.9-1.3,2.3v0.6
		c0,1.1,0.3,1.9,0.8,2.4c0.5,0.5,1.4,0.8,2.7,0.8h3.8c1.3,0,2.1-0.1,2.6-0.2c0.1,0,0.2-0.1,0.3-0.2v0.2h2.5V8.2
		C103.3,6.7,102.8,5.7,101.9,5.2z M97.3,12.9h-2.1c-1.3,0-1.7-0.1-1.8-0.2c-0.2-0.2-0.3-0.5-0.3-0.8v-0.3c0-0.2,0-0.6,0.3-0.7
		c0.2-0.1,0.7-0.2,1.8-0.2h2.4c1.5,0,2.3,0.1,2.6,0.2c0.2,0.1,0.5,0.2,0.5,0.8V12c0,0.4-0.1,0.6-0.5,0.7
		C99.9,12.7,99.1,12.9,97.3,12.9z"/>
	<path class="st0" d="M112.7,10.9c0,1.2-0.2,1.5-0.3,1.6c-0.1,0.1-0.4,0.3-1.6,0.3h-0.5c-0.9,0-1.3-0.2-1.5-0.4
		c-0.2-0.2-0.4-0.7-0.4-1.4V6.9h6.2V4.7h-6.2V2.5H106v2.2h-2v2.2h2v4.8c0,1,0.3,1.8,0.9,2.5c0.6,0.6,1.7,0.9,3.1,0.9h0.9
		c1.3,0,2.3-0.2,2.9-0.7c0.7-0.5,1.1-1.5,1.1-3.1V9.8h-2.2V10.9z"/>
	<path class="st0" d="M127.1,5.4L127.1,5.4c-0.9-0.5-2.2-0.7-3.9-0.7h-2.5c-1.5,0-2.6,0.2-3.3,0.6c-0.7,0.5-1.1,1.2-1.1,2.2v1
		l2.5-0.5V7.6c0-0.3,0.1-0.4,0.3-0.6c0.1-0.1,0.5-0.2,1.6-0.2h2.3c1.5,0,2.2,0.2,2.5,0.3c0.1,0.1,0.5,0.2,0.5,1.1l0,0.7
		c-0.2-0.1-0.3-0.2-0.5-0.2c-0.5-0.2-1.2-0.2-2.4-0.2h-2.6c-1.6,0-2.7,0.2-3.4,0.5c-0.6,0.2-1.2,0.8-1.2,2.3v0.6
		c0,1.1,0.3,1.9,0.8,2.4c0.5,0.5,1.4,0.8,2.7,0.8h3.8c1.3,0,2.1-0.1,2.6-0.2c0.1,0,0.2-0.1,0.3-0.2V15h2.5V8.3
		C128.5,6.9,128,5.9,127.1,5.4z M122.5,13h-2.1c-1.3,0-1.7-0.2-1.8-0.2c-0.2-0.2-0.3-0.5-0.3-0.8v-0.3c0-0.6,0.2-0.7,0.3-0.7
		c0.2-0.1,0.6-0.2,1.8-0.2h2.4c1.6,0,2.4,0.1,2.6,0.2c0.2,0.1,0.5,0.2,0.5,0.8V12c0,0.4-0.1,0.6-0.5,0.7
		C125.2,12.8,124.4,13,122.5,13z"/>
</g>
<path class="st1" d="M24.1,5.2h1.6v9.3h-1.6V5.2L24.1,5.2z M24.1,1.3h1.6V3h-1.6V1.3z"/>
<path class="st1" d="M38,5.7C37.2,5.2,36,5,34.3,5h-1h-1.5c-1.4,0-2.4,0.2-3,0.5c-0.6,0.4-0.9,1-0.9,1.8v0.5l1.6-0.3l0,0
	c0-0.4,0.2-0.7,0.5-0.9c0.3-0.2,0.9-0.3,1.9-0.3h1.5h0.8c1.3,0,2.2,0.1,2.7,0.3c0.5,0.2,0.7,0.8,0.7,1.6l0,1.7
	c-0.3-0.5-0.7-0.7-1.1-0.9c-0.4-0.2-1.2-0.2-2.2-0.2h-0.9h-1.6c-1.5,0-2.6,0.1-3.2,0.4c-0.7,0.3-1,0.9-1,1.9v0.6
	c0,0.9,0.2,1.6,0.7,2.1c0.4,0.5,1.2,0.7,2.3,0.7h2.9h0.9c1.2,0,2-0.1,2.4-0.2c0.4-0.1,0.7-0.4,1-0.9v0.9h1.6V8.2
	C39.2,6.9,38.8,6.1,38,5.7z M37.6,12c0,0.5-0.3,0.9-0.8,1.1c-0.6,0.2-1.6,0.2-3.1,0.2h-0.3h-1.7c-1.1,0-1.7-0.1-2.1-0.3
	c-0.3-0.2-0.5-0.6-0.5-1.2v-0.3c0-0.5,0.2-0.9,0.5-1.2c0.3-0.2,1.1-0.3,2.1-0.3h1.7h0.7c1.3,0,2.2,0.1,2.7,0.2
	c0.5,0.2,0.8,0.6,0.8,1.2V12z"/>
<rect x="41.3" y="1.3" class="st1" width="1.6" height="13.2"/>
<path class="st1" d="M56.2,5.9c-0.9-0.6-2.2-0.8-3.8-0.8h-1.1h-1.2c-1.6,0-2.9,0.3-3.8,0.8c-0.9,0.5-1.3,1.5-1.3,3v2
	c0,1.4,0.4,2.4,1.3,3c0.9,0.5,2.2,0.8,3.8,0.8h1.2h1.1c1.7,0,2.9-0.3,3.8-0.8c0.9-0.5,1.3-1.5,1.3-2.9v-2
	C57.5,7.4,57.1,6.4,56.2,5.9z M55.9,10.8c0,1-0.3,1.7-0.8,2c-0.5,0.3-1.3,0.5-2.3,0.5h-1.6h-1.6c-1,0-1.8-0.2-2.3-0.5
	c-0.5-0.4-0.8-1-0.8-2V9c0-1,0.3-1.7,0.8-2.1c0.5-0.3,1.3-0.5,2.3-0.5h1.6h1.6c1,0,1.8,0.2,2.3,0.5C55.7,7.2,55.9,8,55.9,9V10.8z"/>
<path class="st1" d="M69.4,5.2l0,1.7c-0.3-0.7-0.6-1.2-1.1-1.4C67.7,5.1,67.1,5,66.4,5h-1.6h-1.7c-1.2,0-2.2,0.2-3,0.8
	c-0.8,0.5-1.2,1.5-1.2,3v1.6c0,1.2,0.3,2.1,1,2.7c0.7,0.6,1.6,1,2.9,1h2H66c1,0,1.8-0.1,2.2-0.4c0.5-0.2,0.8-0.6,1-1.1V14
	c0,1.4-0.4,2.2-1.1,2.3c-0.7,0.2-1.8,0.2-3.3,0.2h0h-1.5c-0.8,0-1.5-0.1-2-0.3c-0.5-0.2-0.8-0.6-0.8-1.2l0,0l-1.5-0.3V15
	c0,0.8,0.3,1.4,0.9,2c0.6,0.5,1.5,0.8,2.8,0.8h2h1.6c1.2,0,2.3-0.2,3.1-0.7c0.9-0.5,1.3-1.4,1.3-2.6V5.2H69.4z M69.3,10.3
	c0,0.8-0.2,1.5-0.7,1.9c-0.5,0.4-1.3,0.6-2.4,0.6h-1.4h-1.7c-1,0-1.7-0.2-2.1-0.6c-0.4-0.4-0.6-1.1-0.6-2.2V8.3
	c0-0.7,0.3-1.2,0.7-1.5c0.5-0.3,1.2-0.4,2.1-0.4h1.6h1.6c1.1,0,1.8,0.2,2.2,0.7c0.4,0.5,0.6,1.2,0.6,2.1V10.3z"/>
<path class="st1" d="M21.1,2.8c-0.8-0.9-2.3-1.3-4.5-1.3H6v1.5h3.9v0h7.3c1.2,0,2.1,0.3,2.6,0.9c0.5,0.6,0.8,1.8,0.8,3.6v1.3
	c0,1.8-0.3,3-0.9,3.6c-0.6,0.6-1.5,0.9-2.8,0.9H7.7l0,0H6l0,1.4h10.6c2.2,0,3.7-0.5,4.5-1.4c0.8-0.9,1.2-2.7,1.2-5.2
	C22.3,5.4,21.9,3.7,21.1,2.8z"/>
<path class="st2" d="M81.8,8.7h-1.5c-0.2,0-0.4-0.2-0.4-0.4v-1C79.8,7.1,80,7,80.2,7h1.5c0.2,0,0.4,0.2,0.4,0.4v1
	C82.1,8.6,82,8.7,81.8,8.7z"/>
<path class="st0" d="M15.7,5.3c0.8,0,1.5,0.5,1.5,1.2V10c0,0.6-0.7,1.2-1.5,1.2H15H7.5H5.4H2.6c-0.8,0-1.5-0.5-1.5-1.2V6.4
	c0-0.6,0.7-1.2,1.5-1.2h2.8H15.7 M15.9,4.5H5.3H2.5c-1.2,0-2.2,0.8-2.2,1.9V10c0,1,1,1.9,2.2,1.9h2.8h2.2h7.7h0.7
	c1.2,0,2.2-0.8,2.2-1.9V6.4C18.1,5.4,17.1,4.5,15.9,4.5L15.9,4.5z"/>
<polygon class="st0" points="4.9,11.8 3.3,11.8 4.9,13.4 4.9,11.8 "/>
<path class="st0" d="M15.7,8.9h-1.4c-0.2,0-0.3-0.2-0.3-0.3V7.7c0-0.2,0.2-0.3,0.3-0.3h1.4c0.2,0,0.3,0.2,0.3,0.3v0.9
	C16.1,8.8,15.9,8.9,15.7,8.9z"/>
<path class="st3" d="M11.7,8.9h-1.4c-0.2,0-0.3-0.2-0.3-0.3V7.7c0-0.2,0.2-0.3,0.3-0.3h1.4c0.2,0,0.3,0.2,0.3,0.3v0.9
	C12,8.8,11.9,8.9,11.7,8.9z"/>
</svg>
